<svg xmlns="http://www.w3.org/2000/svg" viewBox="0 0 500 500"><g id="freepik--Floor--inject-5"><path d="M402.63,268.22c-84.85-49-222-49-306.26,0s-83.85,128.42,1,177.4,222,49,306.26,0S487.48,317.21,402.63,268.22Z" style="fill:#f5f5f5"></path></g><g id="freepik--Shadows--inject-5"><path d="M274.61,359.51c-24.92-14.39-65.2-14.39-90,0s-24.62,37.72.3,52.1,65.19,14.39,89.95,0S299.53,373.9,274.61,359.51Z" style="fill:#e6e6e6"></path><path d="M212.11,434c-15.17-8.77-39.7-8.77-54.77,0s-15,23,.17,31.72,39.7,8.77,54.78,0S227.29,442.79,212.11,434Z" style="fill:#e6e6e6"></path><path d="M431.73,311.73C416.55,303,392,303,377,311.73s-15,23,.17,31.73,39.7,8.76,54.78,0S446.91,320.49,431.73,311.73Z" style="fill:#e6e6e6"></path><polygon points="384.5 406.05 329.97 374.01 228.76 423.43 290.22 459.88 384.5 406.05" style="fill:#e6e6e6"></polygon></g><g id="freepik--Boards--inject-5"><polygon points="131.86 92.21 131.86 92.21 131.86 92.21 126.35 89.11 87.89 111.31 88.68 387.34 94.19 390.44 132.65 368.24 131.86 92.21" style="fill:#BA68C8"></polygon><polygon points="131.86 92.21 131.86 92.21 131.86 92.21 126.35 89.11 87.89 111.31 88.68 387.34 94.19 390.44 132.65 368.24 131.86 92.21" style="opacity:0.2"></polygon><polygon points="112.71 115.64 117.38 123.76 127.76 119.51 120.27 132.25 122.08 143.11 112.78 142.86 103.51 153.83 105.25 140.93 97.72 136.85 108.1 129.12 112.71 115.64" style="fill:#fff"></polygon><polygon points="113.25 308.36 117.92 316.49 128.31 312.23 120.82 324.98 122.63 335.83 113.33 335.58 104.06 346.55 105.8 333.65 98.27 329.58 108.64 321.85 113.25 308.36" style="fill:#fff"></polygon><polygon points="113.12 260.18 117.79 268.31 128.17 264.05 120.68 276.8 122.49 287.65 113.19 287.4 103.92 298.37 105.66 285.47 98.13 281.4 108.51 273.66 113.12 260.18" style="fill:#fff"></polygon><polygon points="112.98 212 117.65 220.13 128.03 215.87 120.55 228.62 122.35 239.47 113.06 239.22 103.79 250.19 105.53 237.29 97.99 233.21 108.37 225.48 112.98 212" style="fill:#fff"></polygon><polygon points="112.84 163.82 117.51 171.95 127.89 167.69 120.41 180.43 122.22 191.29 112.92 191.04 103.65 202.01 105.39 189.1 97.86 185.03 108.23 177.31 112.84 163.82" style="fill:#fff"></polygon><polygon points="87.89 111.31 88.68 387.34 94.19 390.44 93.41 114.41 93.41 114.41 87.89 111.31 87.89 111.31" style="opacity:0.2"></polygon><polygon points="131.86 92.21 126.35 89.11 87.89 111.31 93.41 114.41 131.86 92.21 131.86 92.21" style="fill:#fff;opacity:0.1"></polygon><polygon points="276.81 28.68 276.81 28.68 276.81 28.68 271.3 25.59 232.85 47.79 233.63 323.82 239.14 326.92 277.6 304.72 276.81 28.68" style="fill:#BA68C8"></polygon><polygon points="276.81 28.68 276.81 28.68 276.81 28.68 271.3 25.59 232.85 47.79 233.63 323.82 239.14 326.92 277.6 304.72 276.81 28.68" style="opacity:0.2"></polygon><polygon points="257.66 52.11 262.33 60.24 272.71 55.98 265.23 68.73 267.03 79.58 257.74 79.33 248.46 90.31 250.2 77.4 242.67 73.33 253.05 65.59 257.66 52.11" style="fill:#fff"></polygon><polygon points="258.2 244.84 262.88 252.97 273.26 248.71 265.77 261.45 267.58 272.31 258.28 272.06 249.01 283.03 250.75 270.13 243.22 266.05 253.59 258.33 258.2 244.84" style="fill:#fff"></polygon><polygon points="258.07 196.66 262.74 204.78 273.12 200.53 265.64 213.27 267.44 224.13 258.14 223.88 248.87 234.85 250.61 221.95 243.08 217.87 253.46 210.14 258.07 196.66" style="fill:#fff"></polygon><polygon points="257.93 148.47 262.6 156.6 272.98 152.34 265.5 165.09 267.31 175.94 258.01 175.7 248.74 186.66 250.48 173.77 242.94 169.69 253.32 161.96 257.93 148.47" style="fill:#fff"></polygon><polygon points="257.8 100.29 262.47 108.42 272.85 104.16 265.36 116.91 267.17 127.76 257.87 127.51 248.6 138.48 250.34 125.58 242.81 121.51 253.19 113.78 257.8 100.29" style="fill:#fff"></polygon><polygon points="232.85 47.79 233.63 323.82 239.14 326.92 238.36 50.88 238.36 50.88 232.85 47.79 232.85 47.79" style="opacity:0.2"></polygon><polygon points="276.81 28.68 271.3 25.59 232.85 47.79 238.36 50.88 276.81 28.68 276.81 28.68" style="fill:#fff;opacity:0.1"></polygon></g><g id="freepik--Baloons--inject-5"><path d="M199.57,454.09a12,12,0,0,1-10.89,0,3.86,3.86,0,0,1-2.27-3.15h0v5.2a3.86,3.86,0,0,0,2.27,3.15,12,12,0,0,0,10.89,0,3.82,3.82,0,0,0,2.24-3.15v-5.2A3.82,3.82,0,0,1,199.57,454.09Z" style="fill:#BA68C8"></path><path d="M188.68,454.09a12,12,0,0,0,10.89,0,3.82,3.82,0,0,0,2.24-3.15,3.88,3.88,0,0,0-2.28-3.15,12,12,0,0,0-10.88,0,3.8,3.8,0,0,0-2.24,3.15A3.86,3.86,0,0,0,188.68,454.09Z" style="fill:#BA68C8"></path><path d="M199.57,454.09a12,12,0,0,1-10.89,0,3.86,3.86,0,0,1-2.27-3.15h0v5.2a3.86,3.86,0,0,0,2.27,3.15,12,12,0,0,0,10.89,0,3.82,3.82,0,0,0,2.24-3.15v-5.2A3.82,3.82,0,0,1,199.57,454.09Z" style="opacity:0.4"></path><path d="M188.68,454.09a12,12,0,0,0,10.89,0,3.82,3.82,0,0,0,2.24-3.15,3.88,3.88,0,0,0-2.28-3.15,12,12,0,0,0-10.88,0,3.8,3.8,0,0,0-2.24,3.15A3.86,3.86,0,0,0,188.68,454.09Z" style="opacity:0.30000000000000004"></path><path d="M194.11,451.18a.24.24,0,0,1-.24-.23l-1.81-47.41a.24.24,0,0,1,.23-.25h0a.23.23,0,0,1,.23.23l1.82,47.41a.25.25,0,0,1-.23.25Z" style="fill:#e0e0e0"></path><ellipse cx="188.74" cy="388.37" rx="21.44" ry="24.76" transform="translate(-49.86 28.47) rotate(-7.62)" style="fill:#BA68C8"></ellipse><ellipse cx="188.74" cy="388.37" rx="21.44" ry="24.76" transform="translate(-49.86 28.47) rotate(-7.62)" style="opacity:0.1"></ellipse><path d="M184,380l.73-.7a4.25,4.25,0,0,0-.06-6.41l0,0a11.29,11.29,0,0,0-1.1-.77,4.31,4.31,0,0,0-5.77,1.29c-.29.42-.57.85-.83,1.29a4.29,4.29,0,0,0,1.41,5.82l.45.26A4.4,4.4,0,0,0,184,380Z" style="fill:#fff;opacity:0.1"></path><path d="M177.93,392.79a18.11,18.11,0,0,1,1.59-6.29,3.21,3.21,0,0,0-1-3.87l-.23-.16a3.23,3.23,0,0,0-5,2.25c0,.23-.07.45-.09.68A27.25,27.25,0,0,0,176,401c2.09,4.1,5.5,7.8,10,9C181.18,406.06,177.54,398.92,177.93,392.79Z" style="fill:#fff;opacity:0.1"></path><path d="M194.11,451.18a.25.25,0,0,1-.22-.15l-26-59.89a.23.23,0,0,1,.12-.31.23.23,0,0,1,.31.12l26,59.9a.24.24,0,0,1-.13.31Z" style="fill:#e0e0e0"></path><path d="M194.11,451.18a.23.23,0,0,1-.16-.06l-23.82-21.71a.24.24,0,0,1,0-.34.24.24,0,0,1,.33,0l23.82,21.7a.24.24,0,0,1,0,.34A.23.23,0,0,1,194.11,451.18Z" style="fill:#e0e0e0"></path><ellipse cx="158.01" cy="374.32" rx="23.3" ry="26.91" transform="translate(-129.09 86.82) rotate(-22.07)" style="fill:#BA68C8"></ellipse><ellipse cx="158.01" cy="374.32" rx="23.3" ry="26.91" transform="translate(-129.09 86.82) rotate(-22.07)" style="fill:#fff;opacity:0.30000000000000004"></ellipse><path d="M150.73,366.83c.18-.32.38-.62.58-.93a4.63,4.63,0,0,0-1.8-6.74l0,0a10.69,10.69,0,0,0-1.37-.51,4.69,4.69,0,0,0-5.73,2.92c-.18.52-.36,1.05-.52,1.58a4.66,4.66,0,0,0,3.06,5.74l.55.15A4.77,4.77,0,0,0,150.73,366.83Z" style="fill:#fff;opacity:0.30000000000000004"></path><path d="M147.82,381.91a20.35,20.35,0,0,1,0-7.05,3.47,3.47,0,0,0-2.12-3.79l-.28-.11a3.5,3.5,0,0,0-4.62,3.72c0,.24,0,.49.08.73A29.64,29.64,0,0,0,148,391.08c3.31,3.74,7.9,6.72,12.9,6.73C154.85,395,149.08,388.47,147.82,381.91Z" style="fill:#fff;opacity:0.30000000000000004"></path><ellipse cx="153.64" cy="416.16" rx="22.95" ry="26.51" transform="translate(-259.26 253.97) rotate(-48.29)" style="fill:#BA68C8"></ellipse><ellipse cx="153.64" cy="416.16" rx="22.95" ry="26.51" transform="translate(-259.26 253.97) rotate(-48.29)" style="fill:#fff;opacity:0.1"></ellipse><path d="M144,412.7c0-.36.06-.71.11-1.07a4.56,4.56,0,0,0-4.52-5.17h-.06a10.17,10.17,0,0,0-1.44.14,4.63,4.63,0,0,0-3.78,5.08c.06.54.13,1.08.23,1.62a4.57,4.57,0,0,0,5.19,3.74l.55-.1A4.69,4.69,0,0,0,144,412.7Z" style="fill:#fff;opacity:0.1"></path><path d="M148,427.3a19.83,19.83,0,0,1-3.1-6.22,3.43,3.43,0,0,0-3.53-2.43l-.29,0a3.46,3.46,0,0,0-2.47,5.29l.39.62a29.31,29.31,0,0,0,13.14,10.74c4.56,1.86,9.91,2.49,14.34.33C159.85,435.8,151.91,432.55,148,427.3Z" style="fill:#fff;opacity:0.1"></path><path d="M418.77,329.53a12,12,0,0,1-10.89,0,3.84,3.84,0,0,1-2.27-3.15h0v5.2a3.84,3.84,0,0,0,2.27,3.15,12,12,0,0,0,10.89,0,3.79,3.79,0,0,0,2.23-3.15v-5.2A3.81,3.81,0,0,1,418.77,329.53Z" style="fill:#BA68C8"></path><path d="M407.88,329.53a12,12,0,0,0,10.89,0,3.33,3.33,0,0,0,0-6.3,12,12,0,0,0-10.89,0,3.33,3.33,0,0,0,0,6.3Z" style="fill:#BA68C8"></path><path d="M418.77,329.53a12,12,0,0,1-10.89,0,3.84,3.84,0,0,1-2.27-3.15h0v5.2a3.84,3.84,0,0,0,2.27,3.15,12,12,0,0,0,10.89,0,3.79,3.79,0,0,0,2.23-3.15v-5.2A3.81,3.81,0,0,1,418.77,329.53Z" style="opacity:0.4"></path><path d="M407.88,329.53a12,12,0,0,0,10.89,0,3.33,3.33,0,0,0,0-6.3,12,12,0,0,0-10.89,0,3.33,3.33,0,0,0,0,6.3Z" style="opacity:0.30000000000000004"></path><path d="M413.3,326.62a.23.23,0,0,1-.23-.23L411.26,279a.24.24,0,0,1,.22-.25h0a.23.23,0,0,1,.24.23l1.81,47.41a.24.24,0,0,1-.23.25Z" style="fill:#e0e0e0"></path><ellipse cx="407.94" cy="263.81" rx="21.44" ry="24.76" transform="translate(-31.4 56.46) rotate(-7.62)" style="fill:#BA68C8"></ellipse><ellipse cx="407.94" cy="263.81" rx="21.44" ry="24.76" transform="translate(-31.4 56.46) rotate(-7.62)" style="opacity:0.1"></ellipse><path d="M403.17,255.46l.73-.7a4.25,4.25,0,0,0,0-6.41l0,0a12.83,12.83,0,0,0-1.11-.77,4.32,4.32,0,0,0-5.77,1.29c-.28.42-.56.85-.82,1.29a4.28,4.28,0,0,0,1.4,5.81l.45.27A4.39,4.39,0,0,0,403.17,255.46Z" style="fill:#fff;opacity:0.1"></path><path d="M397.12,268.23a18.68,18.68,0,0,1,1.59-6.3,3.18,3.18,0,0,0-1-3.86l-.22-.16a3.24,3.24,0,0,0-5,2.25l-.09.68a27.25,27.25,0,0,0,2.77,15.6c2.1,4.1,5.5,7.8,10,9C400.38,281.5,396.73,274.36,397.12,268.23Z" style="fill:#fff;opacity:0.1"></path><path d="M413.3,326.62a.24.24,0,0,1-.21-.15l-26-59.89a.24.24,0,0,1,.13-.31.23.23,0,0,1,.31.12l26,59.89a.25.25,0,0,1-.12.32Z" style="fill:#e0e0e0"></path><path d="M413.3,326.62a.23.23,0,0,1-.16-.07l-23.81-21.7a.24.24,0,0,1,0-.34.25.25,0,0,1,.34,0l23.81,21.7a.24.24,0,0,1,0,.34A.25.25,0,0,1,413.3,326.62Z" style="fill:#e0e0e0"></path><ellipse cx="377.2" cy="249.76" rx="23.3" ry="26.91" transform="translate(-66.21 160.07) rotate(-22.07)" style="fill:#BA68C8"></ellipse><ellipse cx="377.2" cy="249.76" rx="23.3" ry="26.91" transform="translate(-66.21 160.07) rotate(-22.07)" style="fill:#fff;opacity:0.30000000000000004"></ellipse><path d="M369.92,242.27c.19-.32.38-.63.59-.93a4.63,4.63,0,0,0-1.8-6.74l-.06,0a11.11,11.11,0,0,0-1.37-.52,4.69,4.69,0,0,0-5.72,2.93c-.19.52-.36,1-.52,1.58a4.66,4.66,0,0,0,3.06,5.74l.54.15A4.76,4.76,0,0,0,369.92,242.27Z" style="fill:#fff;opacity:0.30000000000000004"></path><path d="M367,257.35a19.87,19.87,0,0,1,0-7.05,3.48,3.48,0,0,0-2.12-3.79l-.28-.11a3.51,3.51,0,0,0-4.63,3.71l.09.74a29.63,29.63,0,0,0,7.14,15.67c3.32,3.74,7.91,6.72,12.91,6.73C374.05,270.44,368.27,263.91,367,257.35Z" style="fill:#fff;opacity:0.30000000000000004"></path><ellipse cx="372.84" cy="291.6" rx="22.95" ry="26.51" transform="translate(-92.92 375.93) rotate(-48.29)" style="fill:#BA68C8"></ellipse><ellipse cx="372.84" cy="291.6" rx="22.95" ry="26.51" transform="translate(-92.92 375.93) rotate(-48.29)" style="fill:#fff;opacity:0.1"></ellipse><path d="M363.14,288.14c0-.36.07-.71.11-1.07a4.55,4.55,0,0,0-4.52-5.17h-.05a10,10,0,0,0-1.44.14,4.63,4.63,0,0,0-3.79,5.07c.06.55.14,1.09.23,1.63a4.59,4.59,0,0,0,5.2,3.74l.55-.1A4.67,4.67,0,0,0,363.14,288.14Z" style="fill:#fff;opacity:0.1"></path><path d="M367.14,302.74a20,20,0,0,1-3.1-6.23,3.42,3.42,0,0,0-3.52-2.42l-.3,0a3.46,3.46,0,0,0-2.47,5.29l.4.62a29.26,29.26,0,0,0,13.14,10.74c4.56,1.86,9.91,2.49,14.33.33C379.05,311.24,371.1,308,367.14,302.74Z" style="fill:#fff;opacity:0.1"></path></g><g id="freepik--Character--inject-5"><path d="M296.47,193.13c7.36,1.05,10.21,7.46,8.31,11.8C294.33,209.27,293.68,196.12,296.47,193.13Z" style="fill:#455a64"></path><path d="M296.47,193.13c7.36,1.05,10.21,7.46,8.31,11.8C294.33,209.27,293.68,196.12,296.47,193.13Z" style="opacity:0.30000000000000004"></path><path d="M295.61,196.84l4.41-3.26a8.81,8.81,0,0,0,3-4l1-2.87a10.81,10.81,0,0,1,3.69-4.93,37,37,0,0,0,6.76-6.5h0a4.06,4.06,0,0,1,.29,5.14,27.83,27.83,0,0,1-2.7,3.09l2.43.17a8.51,8.51,0,0,0,5-1.22l6.16-3.78a1.18,1.18,0,0,1,1.79,1,27,27,0,0,1-1.78,8.91,10.06,10.06,0,0,1-5.89,5.95c-3.27,1.26-6.45,2.34-8.27,3a10,10,0,0,0-2.89,1.51l-6.47,4.81Z" style="fill:#ffa8a7"></path><path d="M307.4,192a6,6,0,0,0,4.46-7.27,4.71,4.71,0,0,1,.68,4.42,4.6,4.6,0,0,1-3.39,2.81A10.21,10.21,0,0,1,307.4,192Z" style="fill:#f28f8f"></path><path d="M300.4,192.59l-5.56,3.59a10.85,10.85,0,0,0,7.16,9.29l5.1-4.82S302.18,199.89,300.4,192.59Z" style="fill:#f5f5f5"></path><path d="M296.47,193.13l-19,14.27-10.26-28.73a10.85,10.85,0,0,0-8.82-7.1l-5-.65L258,204.56l8,16a10.67,10.67,0,0,0,16.32,3.49l22.44-19.15C296.39,202.71,296.47,196.68,296.47,193.13Z" style="fill:#455a64"></path><polygon points="277.44 207.4 270.84 212.35 275.61 202.28 277.44 207.4" style="opacity:0.1"></polygon><path d="M265.32,219.19c1.11-14,2-25.32-10.78-39.69L258,204.56Z" style="opacity:0.1"></path><path d="M275.56,389.75a10.83,10.83,0,0,1-8.14,3,24.45,24.45,0,0,1-8.61-2.17c-2.75-1.13-6.21-4.3-9.18-4.24a72.26,72.26,0,0,1-8.71-.59A45.54,45.54,0,0,1,242.16,374l13.9-.37c3.75,5.14,11,9.41,16.56,11a4.9,4.9,0,0,1,3.43,3.66.28.28,0,0,0,0,.09A6,6,0,0,1,275.56,389.75Z" style="fill:#455a64"></path><path d="M249.63,386.33c3-.06,6.43,3.11,9.18,4.24a24.45,24.45,0,0,0,8.61,2.17,10.83,10.83,0,0,0,8.14-3,6,6,0,0,0,.48-1.41.28.28,0,0,1,0-.09,4.44,4.44,0,0,1,0,1.85,6,6,0,0,1-.48,1.41,10.87,10.87,0,0,1-8.14,3,24.46,24.46,0,0,1-8.61-2.18c-2.75-1.13-6.21-4.29-9.18-4.24a63,63,0,0,1-8.57-.49c-.07-.62-.11-1.24-.14-1.86A72.26,72.26,0,0,0,249.63,386.33Z" style="fill:#263238"></path><path d="M210.41,391.05a20.61,20.61,0,0,0,.41,4.22,9.74,9.74,0,0,0,3.86,6.14A12.28,12.28,0,0,0,220.8,403a13.4,13.4,0,0,0,5.6-.58,6.37,6.37,0,0,0,3.28-2.67s0,0,0,.07a5.87,5.87,0,0,1-3.77,3.93,13.55,13.55,0,0,1-5.6.57,12.31,12.31,0,0,1-6.12-1.63,9.72,9.72,0,0,1-3.85-6.14,19.85,19.85,0,0,1-.42-4.21,7.16,7.16,0,0,0-2.26-5.16,13.46,13.46,0,0,1-1-1,2.52,2.52,0,0,1-.6-1.84c0-.26,0-.52.08-.77.51.6,1.71,2,2,2.3A7.13,7.13,0,0,1,210.41,391.05Z" style="fill:#263238"></path><path d="M221,376.37a15.39,15.39,0,0,0,1.09,8.54,32,32,0,0,0,4.52,7.44A21.71,21.71,0,0,1,229,395.8a6.2,6.2,0,0,1,.68,4,6.37,6.37,0,0,1-3.28,2.67,13.4,13.4,0,0,1-5.6.58,12.28,12.28,0,0,1-6.12-1.63,9.74,9.74,0,0,1-3.86-6.14,20.61,20.61,0,0,1-.41-4.22,7.13,7.13,0,0,0-2.26-5.15c-.31-.28-1.51-1.7-2-2.3a15.64,15.64,0,0,1,2.08-6Z" style="fill:#455a64"></path><path d="M262.07,239.15l-1.15,79.24-3.74,55.47c-9.47,6-19.92.09-19.92.09,0-29.34-1-37.06-.32-52.7l-.81-43.52-4.58,45.48-9.06,54.42c-9.71,6.29-19-1.26-19-1.26,0-20.14-.2-43.44,3.72-60.41,1.85-17.35-1.58-37.89-.36-50.44,1.77-18.19,5.45-25.56,5.45-25.56Z" style="fill:#37474f"></path><path d="M236.73,270.6l-.6,7.13.43,23.09,2.91-26.58a19.07,19.07,0,0,0,10.91-10.39C244.87,267.89,236.73,270.6,236.73,270.6Z" style="opacity:0.30000000000000004"></path><path d="M244.08,169.94l9.26,1c7.59,6.7,11.51,20.73,9.88,36.24a274,274,0,0,0-1.15,32c-20.56,15-46.51,4.08-49.78.81l1.53-19a13.19,13.19,0,0,0-1-6.26c-1.94-4.51-5.41-13.38-5.87-20.26a35.91,35.91,0,0,1,3.75-17.71l13.47-5.88Z" style="fill:#f5f5f5"></path><path d="M212.78,214.69c-1.71-4-4.6-11.32-5.58-17.72,1.91,1.15,3.93,2.29,4.72,4.19a33.64,33.64,0,0,1,1.91,19.4A13.28,13.28,0,0,0,212.78,214.69Z" style="opacity:0.1"></path><path d="M246.65,183.45c7.75,17.83,7.63,36.19,7.63,36.19l-3.81,8.21-6-7.84a310.77,310.77,0,0,0-.72-36Z" style="fill:#BA68C8"></path><path d="M247,176.72a28.09,28.09,0,0,1-.33,6.73,5.41,5.41,0,0,1-2.88.53,23.49,23.49,0,0,1-4.63-5.59l4.63-1.67Z" style="fill:#BA68C8"></path><path d="M243.77,176.72c-4,1.47-7.54,8.57-7.54,8.57-10.47-8.9-12.1-14.45-12.1-14.45,2.69-3.83,5.63-4.44,5.63-4.44Z" style="fill:#e0e0e0"></path><path d="M243.77,176.72c3,.08,5.74,4.32,5.74,4.32.49-7.42-5.74-13.14-5.74-13.14Z" style="fill:#e0e0e0"></path><path d="M229.51,158.08l14.26,5.09v5.28a23.41,23.41,0,0,1-9-3.28A13.84,13.84,0,0,1,229.51,158.08Z" style="fill:#f28f8f"></path><path d="M229.51,158.08a13.84,13.84,0,0,0,5.22,7.09,23.41,23.41,0,0,0,9,3.28v8.27s-15.07-6.78-15.07-10v-9Z" style="fill:#ffa8a7"></path><path d="M257,137.17a8.62,8.62,0,0,0,7.82-4.41,1.19,1.19,0,0,0-1.29-1.7,9.39,9.39,0,0,1-3.3,0,15.62,15.62,0,0,0,3.07-11.66,1.47,1.47,0,0,0-2.1-1.1,28.94,28.94,0,0,1-14.64,3c-2.7-.19-5.35-.76-8-1a14.88,14.88,0,0,0-7.9,1.2,7.55,7.55,0,0,0-4.32,6.37,3.67,3.67,0,0,0-2.67-1.55,4.08,4.08,0,0,0-3.11.92l4.63,2.58c-1.59-.57-3.6.67-4.4,2.17a10.75,10.75,0,0,0-.85,5,38.88,38.88,0,0,0,.3,6.74,13,13,0,0,0,2.56,6.16,9.68,9.68,0,0,0,4.63,3.14,12.63,12.63,0,0,0,7.52-.24,30.46,30.46,0,0,0,6.83-3.4A107.63,107.63,0,0,0,257,137.17Z" style="fill:#263238"></path><path d="M257.32,132.69a51.74,51.74,0,0,1-3,27.66c-.81,2-1.86,4.12-3.76,5.21s-4.45.9-6.71.55a34,34,0,0,1-10.6-3,14.49,14.49,0,0,1-7.33-7.9,6.34,6.34,0,0,1-6.42-2.52,12.07,12.07,0,0,1-2.09-7c0-1.59.3-3.47,1.72-4.16s2.92.07,4.07,1a12.12,12.12,0,0,1,4,6c1.05-3.87,2.68-7.6,3.73-11.47.41-1.52.92-3.18,2.25-4,1.62-1,3.74-.44,5.61,0A36.85,36.85,0,0,0,257.32,132.69Z" style="fill:#ffa8a7"></path><polygon points="246.05 144.42 250.57 152.03 245.18 153.05 246.05 144.42" style="fill:#f28f8f"></polygon><path d="M240,155.67l4.1,2a2.69,2.69,0,0,1-3.11.89A2.42,2.42,0,0,1,240,155.67Z" style="fill:#f28f8f"></path><path d="M240,155.67l4.1,2a2.69,2.69,0,0,1-3.11.89A2.42,2.42,0,0,1,240,155.67Z" style="opacity:0.30000000000000004"></path><path d="M242.39,158.68a2.43,2.43,0,0,1-1.42-.13,2.17,2.17,0,0,1-1.09-2.16,2.48,2.48,0,0,1,2.51,2.29Z" style="fill:#f28f8f"></path><path d="M238.24,144.73a1.55,1.55,0,1,0,1.7-1.39A1.53,1.53,0,0,0,238.24,144.73Z" style="fill:#263238"></path><path d="M251.22,145.53a1.55,1.55,0,1,0,1.7-1.38A1.56,1.56,0,0,0,251.22,145.53Z" style="fill:#263238"></path><path d="M253.34,139.55l3.18,2.71a2.21,2.21,0,0,0-.43-2.49A2.61,2.61,0,0,0,253.34,139.55Z" style="fill:#263238"></path><path d="M240.17,138l-3.66,2a2.22,2.22,0,0,1,.92-2.35A2.62,2.62,0,0,1,240.17,138Z" style="fill:#263238"></path><path d="M256.09,265.52c-.48,34.67,1.06,49,1.06,49L253.71,365l4.51-50.52Z" style="opacity:0.30000000000000004"></path><path d="M228.49,269.27c-2.7,34.57-2.34,48.91-2.34,48.91l-6.41,50.26,7.74-50.13Z" style="opacity:0.30000000000000004"></path><path d="M264.45,248.4s-.76-9.38-.87-14.36c-1.27-30.25,6.84-50.59-10.24-63.12l-4.76-.5a10.56,10.56,0,0,0-4.26-2c.54.55,1.27,1.49,1.27,1.49,5,5.9,6.18,20.19,4.26,35.9,0,0-20.34-19.85-22.5-38.27l-.76.56a9.23,9.23,0,0,0-2.46,2.71l-13.47,5.88s-3.91,8.18-3.46,15.58,4.31,15.56,4.72,26.89-4.7,17.76-5.47,36.46c10.68,6.75,28.46,5.64,41.6,1.86q1.44-5.17,2.89-10.33c.32,3,.72,6,1.07,9.06C258.39,254,263.13,251.1,264.45,248.4Z" style="fill:#455a64"></path><path d="M249,208.8s-14.76-5.1-24-12.49a1.9,1.9,0,0,1-.14-2.83L230.4,188l-6.09.69a1.9,1.9,0,0,1-2.09-2.14l1.91-14.85-2.83,15.82a1.9,1.9,0,0,0,2.24,2.2l5.16-1-5.4,5.12a1.9,1.9,0,0,0,0,2.77C232.33,204.85,249,208.8,249,208.8Z" style="opacity:0.2"></path><path d="M252.33,206.15s5.12-8.05,6.53-16.2a2.19,2.19,0,0,0-1.15-2.14l-5.12-2.47,3.31-1.26c.67-.25.73-1.32.12-2.18l-7.35-10.44,8.23,10.89c.68.91.6,2.09-.17,2.28l-3,.72,4.89,2.24a2.2,2.2,0,0,1,1.19,2C258.91,198.39,252.33,206.15,252.33,206.15Z" style="opacity:0.2"></path><path d="M210.16,187.87l-2.62-1a24.31,24.31,0,0,0-.34,5.46c.44,7.41,4.31,15.56,4.72,26.89.05,1.17,0,2.28,0,3.36A44,44,0,0,0,210.16,187.87Z" style="opacity:0.2"></path><path d="M179.91,208.34c-5.5,2.61-7.6,11.16-4,15.84C186,223,183.85,212.22,179.91,208.34Z" style="fill:#455a64"></path><path d="M179.91,208.34c-5.5,2.61-7.6,11.16-4,15.84C186,223,183.85,212.22,179.91,208.34Z" style="opacity:0.30000000000000004"></path><path d="M179.16,210.18l-4.92-2.43a8.75,8.75,0,0,1-3.66-3.42L169,201.69a10.79,10.79,0,0,0-4.51-4.19,37.11,37.11,0,0,1-7.81-5.2h0a4.06,4.06,0,0,0,.63,5.11,28.76,28.76,0,0,0,3.2,2.57l-2.36.6a8.41,8.41,0,0,1-5.13-.32l-6.74-2.62a1.17,1.17,0,0,0-1.58,1.29,26.73,26.73,0,0,0,3.34,8.46,10.08,10.08,0,0,0,6.85,4.81c3.44.65,6.77,1.15,8.66,1.42a10,10,0,0,1,3.12,1l7.23,3.59Z" style="fill:#ffa8a7"></path><path d="M183.84,217.75a12.22,12.22,0,0,0,.87-6.41l9.22,4.39a190.87,190.87,0,0,0,3.92-20.44c1.1-9.3.85-15.55,12.81-18.57l1.26,24.44s-1.46,29.87-10,33.17c-7.1,2.74-12.1-4-22.92-11A12.23,12.23,0,0,0,183.84,217.75Z" style="fill:#f5f5f5"></path><path d="M200.13,221.85c-.32-1.39-2.61-4.57-6.2-6.12,0,0,.27-1.08.68-2.84C196.47,213.8,201.05,216.62,200.13,221.85Z" style="opacity:0.1"></path><path d="M176.21,208.34l8.5,3a12.08,12.08,0,0,1-5.74,12,62.67,62.67,0,0,1-7.05-5.61S175.6,216.41,176.21,208.34Z" style="fill:#f5f5f5"></path><path d="M165.37,208.28a6,6,0,0,1-4.46-7.27,4.71,4.71,0,0,0-.68,4.42,4.6,4.6,0,0,0,3.39,2.81A9.29,9.29,0,0,0,165.37,208.28Z" style="fill:#f28f8f"></path><path d="M210.66,176.72l-3.56,1.13A14.55,14.55,0,0,0,197,191.19a51.6,51.6,0,0,1-.79,8.16c-1.15,5.12-2.8,15.18-2.8,15.18l-13.51-6.19c2.85,7.49-1,13.86-4,15.84l19.43,10.67a7.64,7.64,0,0,0,10.7-3.71A84.22,84.22,0,0,0,212.24,202,251.15,251.15,0,0,0,210.66,176.72Z" style="fill:#455a64"></path><path d="M199.55,220.56c2.09-7.4-3-9.09-5.55-9.48-.35,2-.58,3.45-.58,3.45A8.53,8.53,0,0,1,199.55,220.56Z" style="opacity:0.2"></path><path d="M251.8,213.89c.93-.54,1.69-.11,1.69,1a3.65,3.65,0,0,1-1.67,2.9c-.93.54-1.69.11-1.69-1A3.65,3.65,0,0,1,251.8,213.89Z" style="fill:#BA68C8"></path><path d="M251.8,213.89c.93-.54,1.69-.11,1.69,1a3.65,3.65,0,0,1-1.67,2.9c-.93.54-1.69.11-1.69-1A3.65,3.65,0,0,1,251.8,213.89Z" style="opacity:0.2"></path><path d="M251.8,224.57c.93-.54,1.69-.11,1.69,1a3.68,3.68,0,0,1-1.67,2.91c-.93.53-1.69.11-1.69-1A3.68,3.68,0,0,1,251.8,224.57Z" style="fill:#BA68C8"></path><path d="M251.8,224.57c.93-.54,1.69-.11,1.69,1a3.68,3.68,0,0,1-1.67,2.91c-.93.53-1.69.11-1.69-1A3.68,3.68,0,0,1,251.8,224.57Z" style="opacity:0.2"></path><path d="M251.8,235.25c.93-.53,1.69-.1,1.69,1a3.66,3.66,0,0,1-1.67,2.9c-.93.54-1.69.11-1.69-1A3.68,3.68,0,0,1,251.8,235.25Z" style="fill:#BA68C8"></path><path d="M251.8,235.25c.93-.53,1.69-.1,1.69,1a3.66,3.66,0,0,1-1.67,2.9c-.93.54-1.69.11-1.69-1A3.68,3.68,0,0,1,251.8,235.25Z" style="opacity:0.2"></path><polygon points="229.66 208.27 234.31 220.85 233.03 220.94 228.7 209.21 229.66 208.27" style="fill:#BA68C8"></polygon><polygon points="228.7 209.21 233.03 220.94 231.32 221.06 230.45 223.47 226.11 211.74 228.7 209.21" style="fill:#BA68C8"></polygon><polygon points="226.11 211.74 230.45 223.47 229.8 225.26 225.15 212.68 226.11 211.74" style="fill:#BA68C8"></polygon><g style="opacity:0.2"><polygon points="229.66 208.27 234.31 220.85 233.03 220.94 228.7 209.21 229.66 208.27" style="fill:#fff"></polygon></g><g style="opacity:0.30000000000000004"><polygon points="228.7 209.21 233.03 220.94 231.32 221.06 230.45 223.47 226.11 211.74 228.7 209.21"></polygon></g><g style="opacity:0.2"><polygon points="226.11 211.74 230.45 223.47 229.8 225.26 225.15 212.68 226.11 211.74" style="fill:#fff"></polygon></g><polygon points="228.3 207.58 229.27 207.41 224.7 225.32 224.05 224.27 228.3 207.58" style="fill:#BA68C8"></polygon><polygon points="224.75 208.22 225.71 208.04 221.46 224.73 220.18 226.12 224.75 208.22" style="fill:#BA68C8"></polygon><polygon points="225.71 208.04 228.3 207.58 224.05 224.27 223.17 222.88 221.46 224.73 225.71 208.04" style="fill:#BA68C8"></polygon><polygon points="228.3 207.58 229.27 207.41 224.7 225.32 224.05 224.27 228.3 207.58" style="fill:#fff;opacity:0.2"></polygon><polygon points="224.75 208.22 225.71 208.04 221.46 224.73 220.18 226.12 224.75 208.22" style="fill:#fff;opacity:0.2"></polygon><polygon points="225.71 208.04 228.3 207.58 224.05 224.27 223.17 222.88 221.46 224.73 225.71 208.04" style="opacity:0.30000000000000004"></polygon><polygon points="233.71 202.81 234.51 201.17 233.71 200.45 234.15 198.79 227.23 205.37 222.93 201.07 222.58 202.72 221.32 203.86 221.32 203.86 221.38 205.32 220.3 206.78 220.75 207.93 219.95 209.58 220.75 210.29 220.31 211.96 221.39 212.17 221.35 213.69 222.61 213.38 222.97 214.61 224.27 213.81 225 214.63 226.22 213.41 227.25 213.74 228.28 212.22 229.5 212.03 230.22 210.37 231.53 209.67 231.88 208.02 233.13 206.89 233.08 205.42 234.16 203.96 233.71 202.81" style="fill:#BA68C8"></polygon><polygon points="233.06 198.58 233.1 197.06 233.1 197.06 233.1 197.06 231.85 197.36 231.49 196.13 230.19 196.94 229.46 196.12 228.23 197.33 227.2 197 227.2 197 226.18 198.52 224.96 198.72 224.96 198.72 224.23 200.37 222.93 201.07 227.23 205.37 234.15 198.79 233.06 198.58" style="fill:#BA68C8"></polygon><g style="opacity:0.2"><polygon points="227.23 205.37 225 214.63 224.27 213.81 222.97 214.61 227.23 205.37"></polygon></g><g style="opacity:0.2"><polygon points="227.23 205.37 233.13 206.89 231.88 208.02 231.53 209.67 227.23 205.37"></polygon></g><g style="opacity:0.2"><polygon points="227.23 205.37 229.5 212.03 228.28 212.22 227.25 213.74 227.23 205.37"></polygon></g><g style="opacity:0.2"><polygon points="234.51 201.17 233.71 202.81 234.16 203.96 227.23 205.37 234.51 201.17"></polygon></g><g style="opacity:0.2"><polygon points="233.06 198.58 234.15 198.79 227.23 205.37 233.1 197.06 233.06 198.58"></polygon></g><g style="opacity:0.2"><polygon points="227.23 205.37 221.35 213.69 221.39 212.17 220.31 211.96 227.23 205.37"></polygon></g><g style="opacity:0.2"><polygon points="230.19 196.94 231.49 196.13 227.23 205.37 229.46 196.12 230.19 196.94"></polygon></g><g style="opacity:0.2"><polygon points="220.3 206.78 227.23 205.37 219.95 209.58 220.75 207.93 220.3 206.78"></polygon></g><g style="opacity:0.2"><polygon points="226.18 198.52 227.2 197 227.23 205.37 224.96 198.72 226.18 198.52"></polygon></g><g style="opacity:0.2"><polygon points="222.93 201.07 227.23 205.37 221.32 203.86 222.58 202.72 222.93 201.07"></polygon></g><path d="M227.22,201.27c2-1.14,3.57-.22,3.58,2a7.86,7.86,0,0,1-3.56,6.16c-2,1.14-3.57.23-3.58-2A7.84,7.84,0,0,1,227.22,201.27Z" style="fill:#BA68C8"></path><path d="M227.21,199.54c2.8-1.62,5.09-.32,5.1,2.9a11.16,11.16,0,0,1-5.07,8.77c-2.8,1.61-5.08.32-5.09-2.9A11.16,11.16,0,0,1,227.21,199.54Zm0,9.93a7.86,7.86,0,0,0,3.56-6.16c0-2.26-1.61-3.18-3.58-2a7.84,7.84,0,0,0-3.56,6.16c0,2.27,1.61,3.18,3.58,2" style="fill:#BA68C8"></path><g style="opacity:0.1"><path d="M227.22,201.27c2-1.14,3.57-.22,3.58,2a7.86,7.86,0,0,1-3.56,6.16c-2,1.14-3.57.23-3.58-2A7.84,7.84,0,0,1,227.22,201.27Z" style="fill:#fff"></path></g><g style="opacity:0.30000000000000004"><path d="M227.21,199.54c2.8-1.62,5.09-.32,5.1,2.9a11.16,11.16,0,0,1-5.07,8.77c-2.8,1.61-5.08.32-5.09-2.9A11.16,11.16,0,0,1,227.21,199.54Zm0,9.93a7.86,7.86,0,0,0,3.56-6.16c0-2.26-1.61-3.18-3.58-2a7.84,7.84,0,0,0-3.56,6.16c0,2.27,1.61,3.18,3.58,2" style="fill:#fff"></path></g></g><g id="freepik--Podium--inject-5"><polygon points="366.19 269.05 320.11 241.97 240.46 287.44 286.53 314.52 366.19 269.05" style="fill:#BA68C8"></polygon><polygon points="240.46 287.44 240.06 422.81 286.14 449.89 286.53 314.52 240.46 287.44" style="fill:#BA68C8"></polygon><polygon points="366.19 269.05 286.53 314.52 286.14 449.89 365.79 404.42 366.19 269.05" style="fill:#BA68C8"></polygon><polygon points="240.46 287.44 240.06 422.81 286.14 449.89 286.53 314.52 240.46 287.44" style="opacity:0.30000000000000004"></polygon><polygon points="366.19 269.05 286.53 314.52 286.14 449.89 365.79 404.42 366.19 269.05" style="opacity:0.2"></polygon><g style="opacity:0.2"><path d="M347.26,301l.21,73.3c0,11.77-8.28,26.17-18.52,32.08s-18.61,1.15-18.64-10.62l-.21-73.3Z" style="fill:#fff;opacity:0.30000000000000004"></path><path d="M307.76,321.11,349.57,297l.22,76c0,13.25-9.31,29.44-20.83,36.1s-20.94,1.29-21-12Zm39.71,53.17-.21-73.3L310.1,322.44l.21,73.3c0,11.77,8.39,16.54,18.64,10.62s18.55-20.31,18.52-32.08"></path></g><polygon points="400.16 261.77 329.18 220.05 206.45 290.12 277.43 331.83 400.16 261.77" style="fill:#BA68C8"></polygon><polygon points="400.16 261.77 329.18 220.05 206.45 290.12 277.43 331.83 400.16 261.77" style="fill:#fff;opacity:0.1"></polygon><polygon points="206.45 290.12 206.43 298.82 277.42 340.53 277.43 331.83 206.45 290.12" style="fill:#BA68C8"></polygon><polygon points="206.45 290.12 206.43 298.82 277.42 340.53 277.43 331.83 206.45 290.12" style="opacity:0.2"></polygon><polygon points="400.16 261.77 277.43 331.83 277.42 340.53 400.15 270.47 400.16 261.77" style="fill:#BA68C8"></polygon><polygon points="400.16 261.77 277.43 331.83 277.42 340.53 400.15 270.47 400.16 261.77" style="opacity:0.1"></polygon><path d="M320.66,266.79c0,1.54-1,3.07-3,4.23A16.12,16.12,0,0,1,303,271c-2-1.18-3-2.72-3-4.26h0l0,3.81h0c0,1.54,1,3.08,3,4.26a16.15,16.15,0,0,0,14.66.08c2-1.17,3-2.7,3-4.24h0l0-3.81Z" style="fill:#263238"></path><path d="M303,271a16.12,16.12,0,0,0,14.66.07c2-1.16,3-2.69,3-4.23s-1-3.07-3-4.26a16.19,16.19,0,0,0-14.66-.07c-1.93,1.11-2.94,2.55-3,4,0,.08,0,.15,0,.22C299.94,268.23,300.94,269.77,303,271Z" style="fill:#455a64"></path><path d="M295.26,210.42a.35.35,0,0,0-.05-.08,5.08,5.08,0,0,0-.41-.51,3.49,3.49,0,0,0-5,4.92,31.34,31.34,0,0,0,5.13,3.54l2.38-1.91A15.83,15.83,0,0,0,295.26,210.42Z" style="fill:#263238"></path><path d="M311.85,246.66a34.48,34.48,0,0,0-7.6-21.71l-6.9-8.57a1.67,1.67,0,0,0-1.7.49,1.73,1.73,0,0,0-.68,1.42l6.91,8.57a31.5,31.5,0,0,1,6.92,19.79l-.1,20v0s0,0,0,0a.75.75,0,0,0,.44.63,2.37,2.37,0,0,0,2.17,0,.75.75,0,0,0,.45-.62h0Z" style="fill:#37474f"></path><path d="M347.56,299.92v1.28c0,5.56-3.9,12.34-8.73,15.13s-8.79.55-8.8-5v-1.27Z" style="fill:#fff"></path><path d="M330,310.05v1.27c0,5.56-3.9,12.34-8.74,15.14s-8.78.55-8.8-5v-1.27Z" style="fill:#BA68C8"></path><path d="M312.49,320.17v1.27c0,5.57-3.89,12.34-8.73,15.14s-8.78.55-8.8-5V330.3Z" style="fill:#fff"></path><path d="M295,330.3v1.27c0,5.56-3.9,12.34-8.74,15.13s-8.77.55-8.79-5v-1.27Z" style="fill:#BA68C8"></path><path d="M365.09,289.8v1.27c0,5.57-3.89,12.34-8.73,15.14s-8.78.55-8.8-5v-1.28Z" style="fill:#BA68C8"></path><path d="M400.16,269.56v1.27c0,5.56-3.89,12.34-8.73,15.13s-8.79.56-8.8-5v-1.27Z" style="fill:#BA68C8"></path><path d="M382.63,279.68V281c0,5.57-3.9,12.34-8.74,15.14s-8.78.55-8.8-5V289.8Z" style="fill:#fff"></path><g style="opacity:0.30000000000000004"><path d="M330,310.05v1.27c0,5.56-3.9,12.34-8.74,15.14s-8.78.55-8.8-5v-1.27Z" style="fill:#fff"></path></g><g style="opacity:0.30000000000000004"><path d="M295,330.3v1.27c0,5.56-3.9,12.34-8.74,15.13s-8.77.55-8.79-5v-1.27Z" style="fill:#fff"></path></g><g style="opacity:0.30000000000000004"><path d="M365.09,289.8v1.27c0,5.57-3.89,12.34-8.73,15.14s-8.78.55-8.8-5v-1.28Z" style="fill:#fff"></path></g><g style="opacity:0.30000000000000004"><path d="M400.16,269.56v1.27c0,5.56-3.89,12.34-8.73,15.13s-8.79.56-8.8-5v-1.27Z" style="fill:#fff"></path></g><path d="M347.26,301l.21,73.3c0,11.77-8.28,26.17-18.52,32.08s-18.61,1.15-18.64-10.62l-.21-73.3Z" style="fill:#BA68C8"></path><path d="M307.76,321.11,349.57,297l.22,76c0,13.25-9.31,29.44-20.83,36.1s-20.94,1.29-21-12Zm39.71,53.17-.21-73.3L310.1,322.44l.21,73.3c0,11.77,8.39,16.54,18.64,10.62s18.55-20.31,18.52-32.08" style="fill:#fff"></path><polygon points="330.86 270.65 310.22 282.52 289.55 270.45 310.2 258.59 330.86 270.65" style="fill:#455a64"></polygon><polygon points="330.86 270.65 330.85 273.14 310.2 285 310.22 282.52 330.86 270.65" style="fill:#37474f"></polygon><polygon points="310.22 282.52 310.2 285 289.53 272.94 289.55 270.45 310.22 282.52" style="fill:#263238"></polygon></g><g id="freepik--speech-bubble--inject-5"><path d="M295.24,99.84l39.38-22.59c3.45-2,11.61.7,11.61,6.25a2.56,2.56,0,0,0-3.83-2.23L303,103.87a7.61,7.61,0,0,0-3,3.22l-7.65-4.35A7.68,7.68,0,0,1,295.24,99.84Z" style="fill:#BA68C8"></path><path d="M300,107.09a7.53,7.53,0,0,0-.87,3.44v22.63a2.57,2.57,0,0,0,3.84,2.23,7.6,7.6,0,0,1-11.61-6.26V106.51a7.77,7.77,0,0,1,1-3.77Z" style="fill:#BA68C8"></path><path d="M295.24,99.84l39.38-22.59c3.45-2,11.61.7,11.61,6.25a2.56,2.56,0,0,0-3.83-2.23L303,103.87a7.61,7.61,0,0,0-3,3.22l-7.65-4.35A7.68,7.68,0,0,1,295.24,99.84Z" style="fill:#fff;opacity:0.4"></path><path d="M300,107.09a7.53,7.53,0,0,0-.87,3.44v22.63a2.57,2.57,0,0,0,3.84,2.23,7.6,7.6,0,0,1-11.61-6.26V106.51a7.77,7.77,0,0,1,1-3.77Z" style="fill:#fff;opacity:0.2"></path><path d="M342.4,81.27,303,103.87a7.7,7.7,0,0,0-3.86,6.66v22.63a2.57,2.57,0,0,0,3.84,2.23l39.37-22.5a7.7,7.7,0,0,0,3.87-6.68V83.5A2.56,2.56,0,0,0,342.4,81.27Z" style="fill:#BA68C8"></path><path d="M289.67,125.46l9.47,1.77V115.09l-9.79,9.25A.65.65,0,0,0,289.67,125.46Z" style="fill:#BA68C8"></path><path d="M299.14,115.09l-7.76-4.46L281.59,120a.65.65,0,0,0,.13,1l7.74,4.34Z" style="fill:#BA68C8"></path><path d="M299.14,115.09l-7.76-4.46L281.59,120a.65.65,0,0,0,.13,1l7.74,4.34Z" style="fill:#fff;opacity:0.2"></path><path d="M318.05,107.34c2.37-1.37,4.11-.54,4.12,2a8.36,8.36,0,0,1-4.1,6.75c-2.36,1.36-4.1.53-4.11-2A8.34,8.34,0,0,1,318.05,107.34Zm0,6.46a3.61,3.61,0,0,0,1.63-3c0-1.3-.74-1.67-1.64-1.14a3.59,3.59,0,0,0-1.63,3c0,1.31.74,1.68,1.64,1.16" style="fill:#fff"></path><polygon points="314.1 109.81 311.05 119.95 308.64 121.34 305.53 114.75 308.18 113.23 309.92 117.11 311.69 111.2 314.1 109.81" style="fill:#fff"></polygon><polygon points="329.12 101.14 329.12 103.32 326.99 104.55 327.01 110.73 324.55 112.15 324.54 105.97 322.41 107.2 322.4 105.02 329.12 101.14" style="fill:#fff"></polygon><polygon points="335.67 97.36 335.67 99.48 332.17 101.5 332.18 102.48 335.25 100.7 335.25 102.74 332.18 104.51 332.18 105.61 335.82 103.52 335.82 105.64 329.78 109.13 329.76 100.77 335.67 97.36" style="fill:#fff"></polygon><path d="M337.81,101.77c.81-.47,1.37-.19,1.37.61a2.82,2.82,0,0,1-1.37,2.23c-.81.47-1.37.15-1.37-.64A2.71,2.71,0,0,1,337.81,101.77Z" style="fill:#fff"></path><polygon points="338.74 100.75 336.87 101.83 336.39 96.94 339.19 95.32 338.74 100.75" style="fill:#fff"></polygon></g><g id="freepik--Confetti--inject-5"><rect x="157.7" y="96.07" width="4.23" height="8.23" transform="translate(-19.53 158.63) rotate(-50.13)" style="fill:#BA68C8"></rect><path d="M193.56,98.47l-.55,4.25a10.16,10.16,0,0,1-8-6.24l4-1.58A5.9,5.9,0,0,0,193.56,98.47Z" style="fill:#BA68C8"></path><rect x="173.22" y="137.53" width="8.35" height="4.29" transform="translate(-20.78 247.86) rotate(-66.85)" style="fill:#BA68C8"></rect><path d="M183.25,176.63,182.18,183a17.49,17.49,0,0,1-12.22-8.6l5.62-3.16A11.1,11.1,0,0,0,183.25,176.63Z" style="fill:#BA68C8"></path><rect x="349.47" y="165.13" width="7.02" height="13.68" transform="translate(-34.07 105.9) rotate(-16.29)" style="fill:#BA68C8"></rect><path d="M352.76,196.92l4.14,5.13a12.11,12.11,0,0,1-16.22-1.32l4.92-4.39a5.53,5.53,0,0,0,7.16.58Z" style="fill:#BA68C8"></path><path d="M378.6,155.6l-6,2.9a10.86,10.86,0,0,0-7.55-5.77l1.23-6.52A17.41,17.41,0,0,1,378.6,155.6Z" style="fill:#BA68C8"></path><path d="M317.2,140.84l4.24,6.16a16,16,0,0,1-18-.17l4.35-6.08a8.55,8.55,0,0,0,9.42.09Z" style="fill:#BA68C8"></path><rect x="294.31" y="56.46" width="6.41" height="12.5" transform="translate(100.83 294.57) rotate(-61.59)" style="fill:#BA68C8"></rect><path d="M154.85,261.23l-1.2,6.94a17.88,17.88,0,0,1-13.06-10.09l6.42-2.91A10.85,10.85,0,0,0,154.85,261.23Z" style="fill:#BA68C8"></path><path d="M84.19,210.48l-7.06,3.59A14.49,14.49,0,0,0,68,206.73l2-7.67A22.36,22.36,0,0,1,84.19,210.48Z" style="fill:#BA68C8"></path><path d="M97,166.63l1,6.1a18.65,18.65,0,0,1-13.73-3.19l3.58-5A12.48,12.48,0,0,0,97,166.63Z" style="fill:#BA68C8"></path><rect x="66.41" y="142.48" width="7.57" height="3.88" transform="translate(-47.61 35.3) rotate(-21.27)" style="fill:#BA68C8"></rect><rect x="86.37" y="114.83" width="3.88" height="7.57" transform="translate(-54.65 156.41) rotate(-68.14)" style="fill:#BA68C8"></rect><path d="M114.54,71.62l-1.4,4.68a13.89,13.89,0,0,1-8.5-7.34l4.42-2.07A9,9,0,0,0,114.54,71.62Z" style="fill:#BA68C8"></path><path d="M152.38,73.91l-3.22-2.09a4.25,4.25,0,0,0-.27-4.76l3-2.43A8,8,0,0,1,152.38,73.91Z" style="fill:#BA68C8"></path><path d="M153.44,146.64l.62,6.11a11.77,11.77,0,0,1-12.32-8.69l6-1.46a5.63,5.63,0,0,0,5.73,4Z" style="fill:#BA68C8"></path><rect x="287.1" y="169.07" width="3.23" height="6.29" transform="translate(-46.51 147.02) rotate(-26.52)" style="fill:#BA68C8"></rect><rect x="373.72" y="197.66" width="3.47" height="6.76" transform="translate(21.02 437.16) rotate(-61.84)" style="fill:#BA68C8"></rect><path d="M391.8,211.4l.48,2.13a6.12,6.12,0,0,1-4.92-1l1.28-1.76A3.94,3.94,0,0,0,391.8,211.4Z" style="fill:#BA68C8"></path><rect x="391.25" y="230.31" width="5.81" height="2.98" transform="translate(142.56 613.62) rotate(-87.08)" style="fill:#BA68C8"></rect><path d="M353.38,222.09l-.05,2.91a6.31,6.31,0,0,1-5.71-4l2.73-1A3.43,3.43,0,0,0,353.38,222.09Z" style="fill:#BA68C8"></path><rect x="312.78" y="217.01" width="2.38" height="4.64" transform="matrix(0.6, -0.8, 0.8, 0.6, -49.43, 340.24)" style="fill:#BA68C8"></rect><path d="M332.42,234l.41,2.51a6.77,6.77,0,0,1-5.64-1.72l1.73-1.85A4.23,4.23,0,0,0,332.42,234Z" style="fill:#BA68C8"></path><path d="M281.42,272.2l-4.77-.5a9.06,9.06,0,0,0-2.19-6.83l3.6-3.18A13.82,13.82,0,0,1,281.42,272.2Z" style="fill:#BA68C8"></path><path d="M236.1,274.47l-.26,2.49a6.8,6.8,0,0,1-5-3l2.12-1.36A4.3,4.3,0,0,0,236.1,274.47Z" style="fill:#BA68C8"></path><path d="M223.75,262l2.48,2.21a9.29,9.29,0,0,1-7,3.06l.06-3.32A5.94,5.94,0,0,0,223.75,262Z" style="fill:#BA68C8"></path><rect x="223.87" y="256.32" width="2.02" height="3.93" transform="translate(-75.55 422.67) rotate(-77.64)" style="fill:#BA68C8"></rect><path d="M212.94,236.36l.24,2.81a6.49,6.49,0,0,1-6-3l2.42-1.48A3.7,3.7,0,0,0,212.94,236.36Z" style="fill:#BA68C8"></path><path d="M292.84,198.32l-1.49,2.9a8,8,0,0,1-4.24-6.38l3.24-.25A4.71,4.71,0,0,0,292.84,198.32Z" style="fill:#BA68C8"></path><rect x="322" y="171.42" width="2.49" height="4.85" transform="translate(40.93 408.37) rotate(-67.99)" style="fill:#BA68C8"></rect><path d="M219.09,112.49l-.47,4a7.75,7.75,0,0,0-5.81,1.76l-2.62-3.1A11.82,11.82,0,0,1,219.09,112.49Z" style="fill:#BA68C8"></path><path d="M206.37,155l.9,3.66a9.35,9.35,0,0,1-8.58-2.29l2.61-2.73A5.6,5.6,0,0,0,206.37,155Z" style="fill:#BA68C8"></path><path d="M237.4,61.24l.33,4.47a11.11,11.11,0,0,1-9.59-4.34l3.57-2.7A6.68,6.68,0,0,0,237.4,61.24Z" style="fill:#BA68C8"></path><path d="M293.13,88.21,289,87.72a8.63,8.63,0,0,0-1.68-6.15l3.32-2.52A12.74,12.74,0,0,1,293.13,88.21Z" style="fill:#BA68C8"></path><path d="M257.76,30.35l-.93,4.32a12.66,12.66,0,0,1-8.21-6l3.83-2.2A8.29,8.29,0,0,0,257.76,30.35Z" style="fill:#BA68C8"></path><rect x="183.13" y="251.5" width="7.38" height="14.39" transform="translate(-98.31 115.44) rotate(-27.49)" style="fill:#BA68C8"></rect><path d="M73.06,281.22l-2-3.4a3.72,3.72,0,0,0,1.54-1.92,3.67,3.67,0,0,0,.08-2.46l3.75-1.26a7.84,7.84,0,0,1-3.35,9Z" style="fill:#BA68C8"></path><rect x="65.47" y="309.02" width="5.41" height="10.54" transform="translate(-2.38 0.53) rotate(-0.43)" style="fill:#BA68C8"></rect><path d="M97.4,254.8l.69,3.14a9.32,9.32,0,0,1-7.25-1.43l1.84-2.65A6.11,6.11,0,0,0,97.4,254.8Z" style="fill:#BA68C8"></path><path d="M161.21,230.36l-.87,3.74a10.3,10.3,0,0,1-6.93-5.63l3.49-1.62A6.48,6.48,0,0,0,161.21,230.36Z" style="fill:#BA68C8"></path><path d="M164,242.27l3.07,2.34a9.92,9.92,0,0,1-8.16,3.84l.15-3.85A6.08,6.08,0,0,0,164,242.27Z" style="fill:#BA68C8"></path><path d="M173.17,294.25l-3.55,3.36a10.43,10.43,0,0,0-6.81-3.19l.31-4.88A15.3,15.3,0,0,1,173.17,294.25Z" style="fill:#BA68C8"></path><path d="M175.82,308.66l4.1,2.41A8.54,8.54,0,0,1,168.53,314l2.41-4.09a3.61,3.61,0,0,0,2.68.29A3.54,3.54,0,0,0,175.82,308.66Z" style="fill:#BA68C8"></path><rect x="139.9" y="319.31" width="3.88" height="7.55" transform="translate(-136.86 106.67) rotate(-28.47)" style="fill:#BA68C8"></rect><path d="M85,344.36l.37,4.06a9.51,9.51,0,0,1-8.71-4.24L80.13,342A5.47,5.47,0,0,0,85,344.36Z" style="fill:#BA68C8"></path><path d="M97.06,358.59l-3.54,1.66a4.93,4.93,0,0,0-4.34-2.74l0-3.91A8.78,8.78,0,0,1,97.06,358.59Z" style="fill:#BA68C8"></path><rect x="128.37" y="347.56" width="6.42" height="3.29" transform="translate(-107.73 62.87) rotate(-19.24)" style="fill:#BA68C8"></rect><rect x="186.16" y="335.29" width="6.9" height="13.44" transform="translate(-190.74 251.16) rotate(-47.56)" style="fill:#BA68C8"></rect><path d="M366,111.06l4.63,3A15.7,15.7,0,0,1,360,121l-.86-5.45A10.22,10.22,0,0,0,366,111.06Z" style="fill:#BA68C8"></path><path d="M378.12,92.5l0,5.46a22.47,22.47,0,0,1-11.56-3.15l2.79-4.69A17.23,17.23,0,0,0,378.12,92.5Z" style="fill:#BA68C8"></path><path d="M369.24,70.31,371,75a16.82,16.82,0,0,1-11.18.15l1.61-4.71A11.85,11.85,0,0,0,369.24,70.31Z" style="fill:#BA68C8"></path><path d="M333,41.89,335.44,47a13.77,13.77,0,0,1-13.34-1l3.17-4.71A8.12,8.12,0,0,0,333,41.89Z" style="fill:#BA68C8"></path><path d="M408.8,188.36l-4,.06a5.41,5.41,0,0,0-2.86-4.58l1.82-3.59A9.39,9.39,0,0,1,408.8,188.36Z" style="fill:#BA68C8"></path><path d="M416.57,207.6l-.08,3.33a8.7,8.7,0,0,1-6.84-3.69l2.74-1.89A5.36,5.36,0,0,0,416.57,207.6Z" style="fill:#BA68C8"></path><path d="M412.69,153.68l-.77,2.49a5.07,5.07,0,0,1-3.47-5.36l2.59.32A2.51,2.51,0,0,0,412.69,153.68Z" style="fill:#BA68C8"></path><rect x="399.56" y="119.9" width="3.94" height="7.67" transform="matrix(0.97, -0.26, 0.26, 0.97, -18.34, 108.15)" style="fill:#BA68C8"></rect><path d="M387.73,132.23l.71,3.4a6.54,6.54,0,0,1-4.47-.73,6.44,6.44,0,0,1-3-3.42l3.26-1.18a3.09,3.09,0,0,0,1.39,1.57A3,3,0,0,0,387.73,132.23Z" style="fill:#BA68C8"></path><path d="M388.84,52.08l-3.14,5.36a12.47,12.47,0,0,1-5.51-14.1l5.95,1.81a6,6,0,0,0,.22,3.91A6.08,6.08,0,0,0,388.84,52.08Z" style="fill:#BA68C8"></path><path d="M202.3,66.19l-5.4-.73a8.05,8.05,0,0,0-2.72-7.06l3.5-4.17A13.45,13.45,0,0,1,202.3,66.19Z" style="fill:#BA68C8"></path><rect x="280.19" y="306.35" width="5.13" height="10" transform="translate(-82.13 102.18) rotate(-17.93)" style="fill:#BA68C8"></rect><rect x="315.54" y="307.52" width="3.27" height="6.38" transform="translate(-123.21 367.32) rotate(-51.73)" style="fill:#BA68C8"></rect><rect x="260.21" y="363.85" width="3.64" height="7.1" transform="translate(-117.52 123.3) rotate(-21.76)" style="fill:#BA68C8"></rect><path d="M259.94,384.44l1.69,3.93a9,9,0,0,1-10.08-2.2l3.16-2.87A4.81,4.81,0,0,0,259.94,384.44Z" style="fill:#BA68C8"></path><rect x="268.65" y="388.91" width="2.44" height="4.75" transform="translate(-169.3 209.44) rotate(-32.91)" style="fill:#BA68C8"></rect><path d="M256.11,406.43l-1.19,3.41a11.84,11.84,0,0,1-6.3-5.18l3.12-1.82A8.32,8.32,0,0,0,256.11,406.43Z" style="fill:#BA68C8"></path><path d="M225.72,351l-.58,3.73a8,8,0,0,1-6.55-6.3l3.71-.72A4.28,4.28,0,0,0,225.72,351Z" style="fill:#BA68C8"></path><rect x="200.73" y="306.31" width="3.41" height="6.65" transform="translate(-138.16 165.25) rotate(-33.85)" style="fill:#BA68C8"></rect><rect x="221.2" y="387.28" width="6.15" height="3.16" transform="translate(-197.31 543.09) rotate(-80.12)" style="fill:#BA68C8"></rect><path d="M232.87,420.71l-.12,5.09a11.26,11.26,0,0,1-10-7l4.73-1.89A6.23,6.23,0,0,0,232.87,420.71Z" style="fill:#BA68C8"></path><rect x="242.6" y="440.48" width="3.96" height="7.72" transform="translate(-226.81 631.54) rotate(-82.83)" style="fill:#BA68C8"></rect><path d="M267.94,432.1l-2.25,2.31a7.15,7.15,0,0,1-1.67-7.52l3,1.14A3.93,3.93,0,0,0,267.94,432.1Z" style="fill:#BA68C8"></path><rect x="259.79" y="453.06" width="4.67" height="2.4" transform="translate(-250.47 565.21) rotate(-72.23)" style="fill:#BA68C8"></rect><path d="M330.7,355.8l-.19,4.2a10.62,10.62,0,0,1-8.5-5l3.6-2.19A6.47,6.47,0,0,0,330.7,355.8Z" style="fill:#BA68C8"></path><rect x="346.23" y="355.27" width="4.31" height="8.39" transform="translate(-151.91 342.43) rotate(-43.95)" style="fill:#BA68C8"></rect><rect x="348.66" y="388.26" width="6.72" height="3.45" transform="translate(-150.22 544.13) rotate(-64.99)" style="fill:#BA68C8"></rect><path d="M300.87,389.42l3,2.24a6.87,6.87,0,0,1-9.2,1.52l2.16-3.09a3,3,0,0,0,2.13.41A2.86,2.86,0,0,0,300.87,389.42Z" style="fill:#BA68C8"></path><rect x="324.82" y="416.88" width="3.55" height="6.92" transform="translate(-170.92 609.61) rotate(-72.98)" style="fill:#BA68C8"></rect><path d="M387.28,351.68l2.86,2.58a7.63,7.63,0,0,1-9.3,1.45l1.94-3.33A3.83,3.83,0,0,0,387.28,351.68Z" style="fill:#BA68C8"></path><rect x="397.95" y="343.93" width="3.17" height="6.17" transform="translate(-120.27 446.26) rotate(-51.79)" style="fill:#BA68C8"></rect><path d="M398.83,363.66l4.83,1.07a8.91,8.91,0,0,1-10.32,6.59l1.06-4.83a4,4,0,0,0,4.43-2.83Z" style="fill:#BA68C8"></path><rect x="374.53" y="326.01" width="6.15" height="3.16" transform="translate(-57 80.57) rotate(-11.33)" style="fill:#BA68C8"></rect><rect x="421.18" y="293.86" width="9.94" height="5.1" transform="translate(-41.46 521.81) rotate(-60.56)" style="fill:#BA68C8"></rect><path d="M417.94,283l-3-2.8a6.58,6.58,0,0,0,1.56-5.66l4-.85A10.7,10.7,0,0,1,417.94,283Z" style="fill:#BA68C8"></path><rect x="406.64" y="299.9" width="3.77" height="7.34" transform="translate(-17.17 582.54) rotate(-69.85)" style="fill:#BA68C8"></rect><rect x="428.98" y="224.4" width="4.28" height="8.33" transform="translate(-53.67 284.1) rotate(-34.47)" style="fill:#BA68C8"></rect><rect x="64.85" y="372.59" width="8.01" height="4.11" transform="translate(-267.36 195.58) rotate(-51.55)" style="fill:#BA68C8"></rect><path d="M102.15,411,96,414.46a20.31,20.31,0,0,1-1.63-16.22l6.74,2.22A13.22,13.22,0,0,0,102.15,411Z" style="fill:#BA68C8"></path><rect x="114.13" y="389.4" width="4.03" height="7.86" transform="translate(-65.96 25.86) rotate(-9.91)" style="fill:#BA68C8"></rect><g style="opacity:0.7000000000000001"><rect x="157.7" y="96.07" width="4.23" height="8.23" transform="translate(-19.53 158.63) rotate(-50.13)" style="fill:#fff"></rect><path d="M193.56,98.47l-.55,4.25a10.16,10.16,0,0,1-8-6.24l4-1.58A5.9,5.9,0,0,0,193.56,98.47Z" style="fill:#fff"></path><rect x="173.22" y="137.53" width="8.35" height="4.29" transform="translate(-20.78 247.86) rotate(-66.85)" style="fill:#fff"></rect><path d="M183.25,176.63,182.18,183a17.49,17.49,0,0,1-12.22-8.6l5.62-3.16A11.1,11.1,0,0,0,183.25,176.63Z" style="fill:#fff"></path><rect x="349.47" y="165.13" width="7.02" height="13.68" transform="translate(-34.07 105.9) rotate(-16.29)" style="fill:#fff"></rect><path d="M352.76,196.92l4.14,5.13a12.11,12.11,0,0,1-16.22-1.32l4.92-4.39a5.53,5.53,0,0,0,7.16.58Z" style="fill:#fff"></path><path d="M378.6,155.6l-6,2.9a10.86,10.86,0,0,0-7.55-5.77l1.23-6.52A17.41,17.41,0,0,1,378.6,155.6Z" style="fill:#fff"></path><path d="M317.2,140.84l4.24,6.16a16,16,0,0,1-18-.17l4.35-6.08a8.55,8.55,0,0,0,9.42.09Z" style="fill:#fff"></path><rect x="294.31" y="56.46" width="6.41" height="12.5" transform="translate(100.83 294.57) rotate(-61.59)" style="fill:#fff"></rect><path d="M154.85,261.23l-1.2,6.94a17.88,17.88,0,0,1-13.06-10.09l6.42-2.91A10.85,10.85,0,0,0,154.85,261.23Z" style="fill:#fff"></path><path d="M84.19,210.48l-7.06,3.59A14.49,14.49,0,0,0,68,206.73l2-7.67A22.36,22.36,0,0,1,84.19,210.48Z" style="fill:#fff"></path><path d="M97,166.63l1,6.1a18.65,18.65,0,0,1-13.73-3.19l3.58-5A12.48,12.48,0,0,0,97,166.63Z" style="fill:#fff"></path><rect x="66.41" y="142.48" width="7.57" height="3.88" transform="translate(-47.61 35.3) rotate(-21.27)" style="fill:#fff"></rect><rect x="86.37" y="114.83" width="3.88" height="7.57" transform="translate(-54.65 156.41) rotate(-68.14)" style="fill:#fff"></rect><path d="M114.54,71.62l-1.4,4.68a13.89,13.89,0,0,1-8.5-7.34l4.42-2.07A9,9,0,0,0,114.54,71.62Z" style="fill:#fff"></path><path d="M152.38,73.91l-3.22-2.09a4.25,4.25,0,0,0-.27-4.76l3-2.43A8,8,0,0,1,152.38,73.91Z" style="fill:#fff"></path><path d="M153.44,146.64l.62,6.11a11.77,11.77,0,0,1-12.32-8.69l6-1.46a5.63,5.63,0,0,0,5.73,4Z" style="fill:#fff"></path><rect x="287.1" y="169.07" width="3.23" height="6.29" transform="translate(-46.51 147.02) rotate(-26.52)" style="fill:#fff"></rect><rect x="373.72" y="197.66" width="3.47" height="6.76" transform="translate(21.02 437.16) rotate(-61.84)" style="fill:#fff"></rect><path d="M391.8,211.4l.48,2.13a6.12,6.12,0,0,1-4.92-1l1.28-1.76A3.94,3.94,0,0,0,391.8,211.4Z" style="fill:#fff"></path><rect x="391.25" y="230.31" width="5.81" height="2.98" transform="translate(142.56 613.62) rotate(-87.08)" style="fill:#fff"></rect><path d="M353.38,222.09l-.05,2.91a6.31,6.31,0,0,1-5.71-4l2.73-1A3.43,3.43,0,0,0,353.38,222.09Z" style="fill:#fff"></path><rect x="312.78" y="217.01" width="2.38" height="4.64" transform="matrix(0.6, -0.8, 0.8, 0.6, -49.43, 340.24)" style="fill:#fff"></rect><path d="M332.42,234l.41,2.51a6.77,6.77,0,0,1-5.64-1.72l1.73-1.85A4.23,4.23,0,0,0,332.42,234Z" style="fill:#fff"></path><path d="M281.42,272.2l-4.77-.5a9.06,9.06,0,0,0-2.19-6.83l3.6-3.18A13.82,13.82,0,0,1,281.42,272.2Z" style="fill:#fff"></path><path d="M236.1,274.47l-.26,2.49a6.8,6.8,0,0,1-5-3l2.12-1.36A4.3,4.3,0,0,0,236.1,274.47Z" style="fill:#fff"></path><path d="M223.75,262l2.48,2.21a9.29,9.29,0,0,1-7,3.06l.06-3.32A5.94,5.94,0,0,0,223.75,262Z" style="fill:#fff"></path><rect x="223.87" y="256.32" width="2.02" height="3.93" transform="translate(-75.55 422.67) rotate(-77.64)" style="fill:#fff"></rect><path d="M212.94,236.36l.24,2.81a6.49,6.49,0,0,1-6-3l2.42-1.48A3.7,3.7,0,0,0,212.94,236.36Z" style="fill:#fff"></path><path d="M292.84,198.32l-1.49,2.9a8,8,0,0,1-4.24-6.38l3.24-.25A4.71,4.71,0,0,0,292.84,198.32Z" style="fill:#fff"></path><rect x="322" y="171.42" width="2.49" height="4.85" transform="translate(40.93 408.37) rotate(-67.99)" style="fill:#fff"></rect><path d="M219.09,112.49l-.47,4a7.75,7.75,0,0,0-5.81,1.76l-2.62-3.1A11.82,11.82,0,0,1,219.09,112.49Z" style="fill:#fff"></path><path d="M206.37,155l.9,3.66a9.35,9.35,0,0,1-8.58-2.29l2.61-2.73A5.6,5.6,0,0,0,206.37,155Z" style="fill:#fff"></path><path d="M237.4,61.24l.33,4.47a11.11,11.11,0,0,1-9.59-4.34l3.57-2.7A6.68,6.68,0,0,0,237.4,61.24Z" style="fill:#fff"></path><path d="M293.13,88.21,289,87.72a8.63,8.63,0,0,0-1.68-6.15l3.32-2.52A12.74,12.74,0,0,1,293.13,88.21Z" style="fill:#fff"></path><path d="M257.76,30.35l-.93,4.32a12.66,12.66,0,0,1-8.21-6l3.83-2.2A8.29,8.29,0,0,0,257.76,30.35Z" style="fill:#fff"></path><rect x="183.13" y="251.5" width="7.38" height="14.39" transform="translate(-98.31 115.44) rotate(-27.49)" style="fill:#fff"></rect><path d="M73.06,281.22l-2-3.4a3.72,3.72,0,0,0,1.54-1.92,3.67,3.67,0,0,0,.08-2.46l3.75-1.26a7.84,7.84,0,0,1-3.35,9Z" style="fill:#fff"></path><rect x="65.47" y="309.02" width="5.41" height="10.54" transform="translate(-2.38 0.53) rotate(-0.43)" style="fill:#fff"></rect><path d="M97.4,254.8l.69,3.14a9.32,9.32,0,0,1-7.25-1.43l1.84-2.65A6.11,6.11,0,0,0,97.4,254.8Z" style="fill:#fff"></path><path d="M161.21,230.36l-.87,3.74a10.3,10.3,0,0,1-6.93-5.63l3.49-1.62A6.48,6.48,0,0,0,161.21,230.36Z" style="fill:#fff"></path><path d="M164,242.27l3.07,2.34a9.92,9.92,0,0,1-8.16,3.84l.15-3.85A6.08,6.08,0,0,0,164,242.27Z" style="fill:#fff"></path><path d="M173.17,294.25l-3.55,3.36a10.43,10.43,0,0,0-6.81-3.19l.31-4.88A15.3,15.3,0,0,1,173.17,294.25Z" style="fill:#fff"></path><path d="M175.82,308.66l4.1,2.41A8.54,8.54,0,0,1,168.53,314l2.41-4.09a3.61,3.61,0,0,0,2.68.29A3.54,3.54,0,0,0,175.82,308.66Z" style="fill:#fff"></path><rect x="139.9" y="319.31" width="3.88" height="7.55" transform="translate(-136.86 106.67) rotate(-28.47)" style="fill:#fff"></rect><path d="M85,344.36l.37,4.06a9.51,9.51,0,0,1-8.71-4.24L80.13,342A5.47,5.47,0,0,0,85,344.36Z" style="fill:#fff"></path><path d="M97.06,358.59l-3.54,1.66a4.93,4.93,0,0,0-4.34-2.74l0-3.91A8.78,8.78,0,0,1,97.06,358.59Z" style="fill:#fff"></path><rect x="128.37" y="347.56" width="6.42" height="3.29" transform="translate(-107.73 62.87) rotate(-19.24)" style="fill:#fff"></rect><rect x="186.16" y="335.29" width="6.9" height="13.44" transform="translate(-190.74 251.16) rotate(-47.56)" style="fill:#fff"></rect><path d="M366,111.06l4.63,3A15.7,15.7,0,0,1,360,121l-.86-5.45A10.22,10.22,0,0,0,366,111.06Z" style="fill:#fff"></path><path d="M378.12,92.5l0,5.46a22.47,22.47,0,0,1-11.56-3.15l2.79-4.69A17.23,17.23,0,0,0,378.12,92.5Z" style="fill:#fff"></path><path d="M369.24,70.31,371,75a16.82,16.82,0,0,1-11.18.15l1.61-4.71A11.85,11.85,0,0,0,369.24,70.31Z" style="fill:#fff"></path><path d="M333,41.89,335.44,47a13.77,13.77,0,0,1-13.34-1l3.17-4.71A8.12,8.12,0,0,0,333,41.89Z" style="fill:#fff"></path><path d="M408.8,188.36l-4,.06a5.41,5.41,0,0,0-2.86-4.58l1.82-3.59A9.39,9.39,0,0,1,408.8,188.36Z" style="fill:#fff"></path><path d="M416.57,207.6l-.08,3.33a8.7,8.7,0,0,1-6.84-3.69l2.74-1.89A5.36,5.36,0,0,0,416.57,207.6Z" style="fill:#fff"></path><path d="M412.69,153.68l-.77,2.49a5.07,5.07,0,0,1-3.47-5.36l2.59.32A2.51,2.51,0,0,0,412.69,153.68Z" style="fill:#fff"></path><rect x="399.56" y="119.9" width="3.94" height="7.67" transform="matrix(0.97, -0.26, 0.26, 0.97, -18.34, 108.15)" style="fill:#fff"></rect><path d="M387.73,132.23l.71,3.4a6.54,6.54,0,0,1-4.47-.73,6.44,6.44,0,0,1-3-3.42l3.26-1.18a3.09,3.09,0,0,0,1.39,1.57A3,3,0,0,0,387.73,132.23Z" style="fill:#fff"></path><path d="M388.84,52.08l-3.14,5.36a12.47,12.47,0,0,1-5.51-14.1l5.95,1.81a6,6,0,0,0,.22,3.91A6.08,6.08,0,0,0,388.84,52.08Z" style="fill:#fff"></path><path d="M202.3,66.19l-5.4-.73a8.05,8.05,0,0,0-2.72-7.06l3.5-4.17A13.45,13.45,0,0,1,202.3,66.19Z" style="fill:#fff"></path><rect x="280.19" y="306.35" width="5.13" height="10" transform="translate(-82.13 102.18) rotate(-17.93)" style="fill:#fff"></rect><rect x="315.54" y="307.52" width="3.27" height="6.38" transform="translate(-123.21 367.32) rotate(-51.73)" style="fill:#fff"></rect><rect x="260.21" y="363.85" width="3.64" height="7.1" transform="translate(-117.52 123.3) rotate(-21.76)" style="fill:#fff"></rect><path d="M259.94,384.44l1.69,3.93a9,9,0,0,1-10.08-2.2l3.16-2.87A4.81,4.81,0,0,0,259.94,384.44Z" style="fill:#fff"></path><rect x="268.65" y="388.91" width="2.44" height="4.75" transform="translate(-169.3 209.44) rotate(-32.91)" style="fill:#fff"></rect><path d="M256.11,406.43l-1.19,3.41a11.84,11.84,0,0,1-6.3-5.18l3.12-1.82A8.32,8.32,0,0,0,256.11,406.43Z" style="fill:#fff"></path><path d="M225.72,351l-.58,3.73a8,8,0,0,1-6.55-6.3l3.71-.72A4.28,4.28,0,0,0,225.72,351Z" style="fill:#fff"></path><rect x="200.73" y="306.31" width="3.41" height="6.65" transform="translate(-138.16 165.25) rotate(-33.85)" style="fill:#fff"></rect><rect x="221.2" y="387.28" width="6.15" height="3.16" transform="translate(-197.31 543.09) rotate(-80.12)" style="fill:#fff"></rect><path d="M232.87,420.71l-.12,5.09a11.26,11.26,0,0,1-10-7l4.73-1.89A6.23,6.23,0,0,0,232.87,420.71Z" style="fill:#fff"></path><rect x="242.6" y="440.48" width="3.96" height="7.72" transform="translate(-226.81 631.54) rotate(-82.83)" style="fill:#fff"></rect><path d="M267.94,432.1l-2.25,2.31a7.15,7.15,0,0,1-1.67-7.52l3,1.14A3.93,3.93,0,0,0,267.94,432.1Z" style="fill:#fff"></path><rect x="259.79" y="453.06" width="4.67" height="2.4" transform="translate(-250.47 565.21) rotate(-72.23)" style="fill:#fff"></rect><path d="M330.7,355.8l-.19,4.2a10.62,10.62,0,0,1-8.5-5l3.6-2.19A6.47,6.47,0,0,0,330.7,355.8Z" style="fill:#fff"></path><rect x="346.23" y="355.27" width="4.31" height="8.39" transform="translate(-151.91 342.43) rotate(-43.95)" style="fill:#fff"></rect><rect x="348.66" y="388.26" width="6.72" height="3.45" transform="translate(-150.22 544.13) rotate(-64.99)" style="fill:#fff"></rect><path d="M300.87,389.42l3,2.24a6.87,6.87,0,0,1-9.2,1.52l2.16-3.09a3,3,0,0,0,2.13.41A2.86,2.86,0,0,0,300.87,389.42Z" style="fill:#fff"></path><rect x="324.82" y="416.88" width="3.55" height="6.92" transform="translate(-170.92 609.61) rotate(-72.98)" style="fill:#fff"></rect><path d="M387.28,351.68l2.86,2.58a7.63,7.63,0,0,1-9.3,1.45l1.94-3.33A3.83,3.83,0,0,0,387.28,351.68Z" style="fill:#fff"></path><rect x="397.95" y="343.93" width="3.17" height="6.17" transform="translate(-120.27 446.26) rotate(-51.79)" style="fill:#fff"></rect><path d="M398.83,363.66l4.83,1.07a8.91,8.91,0,0,1-10.32,6.59l1.06-4.83a4,4,0,0,0,4.43-2.83Z" style="fill:#fff"></path><rect x="374.53" y="326.01" width="6.15" height="3.16" transform="translate(-57 80.57) rotate(-11.33)" style="fill:#fff"></rect><rect x="421.18" y="293.86" width="9.94" height="5.1" transform="translate(-41.46 521.81) rotate(-60.56)" style="fill:#fff"></rect><path d="M417.94,283l-3-2.8a6.58,6.58,0,0,0,1.56-5.66l4-.85A10.7,10.7,0,0,1,417.94,283Z" style="fill:#fff"></path><rect x="406.64" y="299.9" width="3.77" height="7.34" transform="translate(-17.17 582.54) rotate(-69.85)" style="fill:#fff"></rect><rect x="428.98" y="224.4" width="4.28" height="8.33" transform="translate(-53.67 284.1) rotate(-34.47)" style="fill:#fff"></rect><rect x="64.85" y="372.59" width="8.01" height="4.11" transform="translate(-267.36 195.58) rotate(-51.55)" style="fill:#fff"></rect><path d="M102.15,411,96,414.46a20.31,20.31,0,0,1-1.63-16.22l6.74,2.22A13.22,13.22,0,0,0,102.15,411Z" style="fill:#fff"></path><rect x="114.13" y="389.4" width="4.03" height="7.86" transform="translate(-65.96 25.86) rotate(-9.91)" style="fill:#fff"></rect></g></g></svg>