<svg xmlns="http://www.w3.org/2000/svg" viewBox="0 0 500 500"><g id="freepik--background-simple--inject-2"><path d="M421.32,88.26C403.41,69.91,382.89,54.65,361.08,44,327.87,27.69,291.29,19.85,254.7,19.38,147.78,18,139.65,149.64,106.77,167.94s-92.45,20.45-94.51,93.65c-1.29,46,9,93.38,37.81,129.25,26.41,32.86,65.22,49.51,103.46,61.81C196.46,466.47,242,480,287.16,470.7c46.35-9.57,78.91-48,117-74,24-16.36,45.47-33.59,60.27-59.85,1.77-3.13,3.43-6.34,5-9.59,19.81-40.79,23.69-87.85,12.77-132C472.38,155.63,450.25,117.9,421.32,88.26Z" style="fill:#92E3A9"></path><path d="M421.32,88.26C403.41,69.91,382.89,54.65,361.08,44,327.87,27.69,291.29,19.85,254.7,19.38,147.78,18,139.65,149.64,106.77,167.94s-92.45,20.45-94.51,93.65c-1.29,46,9,93.38,37.81,129.25,26.41,32.86,65.22,49.51,103.46,61.81C196.46,466.47,242,480,287.16,470.7c46.35-9.57,78.91-48,117-74,24-16.36,45.47-33.59,60.27-59.85,1.77-3.13,3.43-6.34,5-9.59,19.81-40.79,23.69-87.85,12.77-132C472.38,155.63,450.25,117.9,421.32,88.26Z" style="fill:#fff;opacity:0.7000000000000001"></path></g><g id="freepik--Plant--inject-2"><line x1="23.72" y1="338.32" x2="33.84" y2="435.34" style="fill:none;stroke:#263238;stroke-miterlimit:10"></line><line x1="32.21" y1="416.77" x2="27.62" y2="411.92" style="fill:none;stroke:#263238;stroke-miterlimit:10"></line><path d="M29,413.38a5.22,5.22,0,0,0-1.82-3.9c-1.18-1.05-7.38-3.66-8-1.48C18.58,410.38,24.93,415,29,413.38Z" style="fill:#92E3A9;stroke:#263238;stroke-miterlimit:10"></path><line x1="29.01" y1="413.38" x2="23.11" y2="409.7" style="fill:none;stroke:#263238;stroke-miterlimit:10;stroke-width:0.5px"></line><line x1="33.36" y1="427.8" x2="28.77" y2="422.96" style="fill:none;stroke:#263238;stroke-miterlimit:10"></line><path d="M30.16,424.41a5.15,5.15,0,0,0-1.82-3.89c-1.18-1.06-7.38-3.67-8-1.48C19.73,421.41,26.08,426.08,30.16,424.41Z" style="fill:#92E3A9;stroke:#263238;stroke-miterlimit:10"></path><line x1="30.16" y1="424.41" x2="24.26" y2="420.73" style="fill:none;stroke:#263238;stroke-miterlimit:10;stroke-width:0.5px"></line><line x1="29.4" y1="389.85" x2="24.81" y2="385" style="fill:none;stroke:#263238;stroke-miterlimit:10"></line><path d="M26.2,386.45a5.21,5.21,0,0,0-1.82-3.89c-1.18-1.06-7.38-3.66-8-1.48C15.77,383.45,22.12,388.12,26.2,386.45Z" style="fill:#92E3A9;stroke:#263238;stroke-miterlimit:10"></path><line x1="26.2" y1="386.45" x2="20.3" y2="382.77" style="fill:none;stroke:#263238;stroke-miterlimit:10;stroke-width:0.5px"></line><line x1="30.55" y1="400.88" x2="25.96" y2="396.03" style="fill:none;stroke:#263238;stroke-miterlimit:10"></line><path d="M27.35,397.48a5.16,5.16,0,0,0-1.82-3.89c-1.18-1-7.38-3.66-8-1.48C16.92,394.49,23.27,399.15,27.35,397.48Z" style="fill:#92E3A9;stroke:#263238;stroke-miterlimit:10"></path><line x1="27.35" y1="397.48" x2="21.45" y2="393.81" style="fill:none;stroke:#263238;stroke-miterlimit:10;stroke-width:0.5px"></line><line x1="27.53" y1="371.92" x2="22.94" y2="367.07" style="fill:none;stroke:#263238;stroke-miterlimit:10"></line><path d="M24.33,368.53a5.22,5.22,0,0,0-1.82-3.9c-1.18-1.05-7.38-3.66-8-1.47C13.9,365.53,20.24,370.2,24.33,368.53Z" style="fill:#92E3A9;stroke:#263238;stroke-miterlimit:10"></path><line x1="24.33" y1="368.53" x2="18.43" y2="364.85" style="fill:none;stroke:#263238;stroke-miterlimit:10;stroke-width:0.5px"></line><line x1="25.65" y1="353.92" x2="21.06" y2="349.07" style="fill:none;stroke:#263238;stroke-miterlimit:10"></line><path d="M22.45,350.52a5.21,5.21,0,0,0-1.82-3.89c-1.18-1.05-7.38-3.66-8-1.48C12,347.53,18.37,352.19,22.45,350.52Z" style="fill:#92E3A9;stroke:#263238;stroke-miterlimit:10"></path><line x1="22.45" y1="350.52" x2="16.55" y2="346.85" style="fill:none;stroke:#263238;stroke-miterlimit:10;stroke-width:0.5px"></line><line x1="31.44" y1="410.24" x2="34.93" y2="404.55" style="fill:none;stroke:#263238;stroke-miterlimit:10"></line><path d="M33.86,406.26a5.2,5.2,0,0,1,1-4.19c.93-1.27,6.46-5.1,7.49-3.09C43.45,401.17,38.21,407.05,33.86,406.26Z" style="fill:#92E3A9;stroke:#263238;stroke-miterlimit:10"></path><line x1="33.86" y1="406.26" x2="39.18" y2="401.18" style="fill:none;stroke:#263238;stroke-miterlimit:10;stroke-width:0.5px"></line><line x1="28.41" y1="381.21" x2="31.9" y2="375.51" style="fill:none;stroke:#263238;stroke-miterlimit:10"></line><path d="M30.83,377.22a5.18,5.18,0,0,1,1-4.18c.93-1.28,6.46-5.11,7.49-3.09C40.42,372.14,35.18,378,30.83,377.22Z" style="fill:#92E3A9;stroke:#263238;stroke-miterlimit:10"></path><line x1="30.83" y1="377.22" x2="36.15" y2="372.14" style="fill:none;stroke:#263238;stroke-miterlimit:10;stroke-width:0.5px"></line><line x1="27.07" y1="368.45" x2="30.57" y2="362.75" style="fill:none;stroke:#263238;stroke-miterlimit:10"></line><path d="M29.5,364.46a5.19,5.19,0,0,1,1-4.18c.94-1.28,6.47-5.11,7.49-3.09C39.09,359.38,33.84,365.25,29.5,364.46Z" style="fill:#92E3A9;stroke:#263238;stroke-miterlimit:10"></path><line x1="29.5" y1="364.46" x2="34.82" y2="359.38" style="fill:none;stroke:#263238;stroke-miterlimit:10;stroke-width:0.5px"></line><line x1="25.12" y1="349.74" x2="28.61" y2="344.05" style="fill:none;stroke:#263238;stroke-miterlimit:10"></line><path d="M27.55,345.76a5.22,5.22,0,0,1,1-4.19c.94-1.27,6.47-5.11,7.49-3.09C37.14,340.67,31.89,346.55,27.55,345.76Z" style="fill:#92E3A9;stroke:#263238;stroke-miterlimit:10"></path><line x1="27.55" y1="345.76" x2="32.86" y2="340.68" style="fill:none;stroke:#263238;stroke-miterlimit:10;stroke-width:0.5px"></line><path d="M23.63,337.78a5.22,5.22,0,0,1,1-4.19c.94-1.27,6.47-5.1,7.49-3.09C33.22,332.69,28,338.57,23.63,337.78Z" style="fill:#92E3A9;stroke:#263238;stroke-miterlimit:10"></path><line x1="23.63" y1="337.78" x2="28.95" y2="332.7" style="fill:none;stroke:#263238;stroke-miterlimit:10;stroke-width:0.5px"></line><path d="M23.94,338a5.2,5.2,0,0,1-4.06-1.42c-1.17-1.06-4.4-7-2.29-7.77C19.89,327.93,25.18,333.76,23.94,338Z" style="fill:#92E3A9;stroke:#263238;stroke-miterlimit:10"></path><line x1="23.94" y1="338" x2="19.44" y2="332.18" style="fill:none;stroke:#263238;stroke-miterlimit:10;stroke-width:0.5px"></line><line x1="50.42" y1="351.68" x2="40.35" y2="448.71" style="fill:none;stroke:#263238;stroke-miterlimit:10"></line><line x1="42.58" y1="430.2" x2="39.09" y2="424.51" style="fill:none;stroke:#263238;stroke-miterlimit:10"></line><path d="M40.15,426.22a5.2,5.2,0,0,0-1-4.19c-.93-1.27-6.46-5.1-7.49-3.08C30.56,421.14,35.81,427,40.15,426.22Z" style="fill:#92E3A9;stroke:#263238;stroke-miterlimit:10"></path><line x1="40.15" y1="426.22" x2="35.13" y2="421.4" style="fill:none;stroke:#263238;stroke-miterlimit:10;stroke-width:0.5px"></line><line x1="45.37" y1="403.27" x2="41.88" y2="397.58" style="fill:none;stroke:#263238;stroke-miterlimit:10"></line><path d="M42.94,399.29a5.19,5.19,0,0,0-1-4.18C41,393.83,35.49,390,34.47,392,33.35,394.21,38.6,400.08,42.94,399.29Z" style="fill:#92E3A9;stroke:#263238;stroke-miterlimit:10"></path><line x1="42.94" y1="399.29" x2="37.93" y2="394.48" style="fill:none;stroke:#263238;stroke-miterlimit:10;stroke-width:0.5px"></line><line x1="44.23" y1="414.31" x2="40.73" y2="408.62" style="fill:none;stroke:#263238;stroke-miterlimit:10"></line><path d="M41.8,410.33a5.2,5.2,0,0,0-1-4.19c-.93-1.27-6.46-5.1-7.49-3.08C32.21,405.25,37.46,411.12,41.8,410.33Z" style="fill:#92E3A9;stroke:#263238;stroke-miterlimit:10"></path><line x1="41.8" y1="410.33" x2="36.78" y2="405.51" style="fill:none;stroke:#263238;stroke-miterlimit:10;stroke-width:0.5px"></line><line x1="47.23" y1="385.35" x2="43.74" y2="379.66" style="fill:none;stroke:#263238;stroke-miterlimit:10"></line><path d="M44.8,381.37a5.22,5.22,0,0,0-1-4.19c-.94-1.27-6.47-5.1-7.49-3.08C35.21,376.29,40.46,382.16,44.8,381.37Z" style="fill:#92E3A9;stroke:#263238;stroke-miterlimit:10"></path><line x1="44.8" y1="381.37" x2="39.79" y2="376.55" style="fill:none;stroke:#263238;stroke-miterlimit:10;stroke-width:0.5px"></line><line x1="49.1" y1="367.34" x2="45.61" y2="361.66" style="fill:none;stroke:#263238;stroke-miterlimit:10"></line><path d="M46.67,363.36a5.19,5.19,0,0,0-1-4.18c-.94-1.27-6.47-5.1-7.5-3.09C37.08,358.28,42.33,364.16,46.67,363.36Z" style="fill:#92E3A9;stroke:#263238;stroke-miterlimit:10"></path><line x1="46.67" y1="363.36" x2="41.65" y2="358.55" style="fill:none;stroke:#263238;stroke-miterlimit:10;stroke-width:0.5px"></line><line x1="43.17" y1="423.65" x2="47.76" y2="418.8" style="fill:none;stroke:#263238;stroke-miterlimit:10"></line><path d="M46.36,420.25a5.2,5.2,0,0,1,1.83-3.89c1.17-1.05,7.37-3.66,8-1.48C56.79,417.25,50.45,421.92,46.36,420.25Z" style="fill:#92E3A9;stroke:#263238;stroke-miterlimit:10"></path><line x1="46.36" y1="420.25" x2="52.61" y2="416.38" style="fill:none;stroke:#263238;stroke-miterlimit:10;stroke-width:0.5px"></line><line x1="46.18" y1="394.61" x2="50.77" y2="389.76" style="fill:none;stroke:#263238;stroke-miterlimit:10"></line><path d="M49.37,391.22a5.21,5.21,0,0,1,1.83-3.9c1.18-1.05,7.38-3.66,8-1.48C59.81,388.22,53.46,392.88,49.37,391.22Z" style="fill:#92E3A9;stroke:#263238;stroke-miterlimit:10"></path><line x1="49.37" y1="391.22" x2="55.62" y2="387.34" style="fill:none;stroke:#263238;stroke-miterlimit:10;stroke-width:0.5px"></line><line x1="47.51" y1="381.85" x2="52.09" y2="377" style="fill:none;stroke:#263238;stroke-miterlimit:10"></line><path d="M50.7,378.46a5.22,5.22,0,0,1,1.82-3.9c1.18-1.05,7.38-3.66,8-1.48C61.13,375.45,54.79,380.12,50.7,378.46Z" style="fill:#92E3A9;stroke:#263238;stroke-miterlimit:10"></path><line x1="50.7" y1="378.46" x2="56.95" y2="374.58" style="fill:none;stroke:#263238;stroke-miterlimit:10;stroke-width:0.5px"></line><line x1="49.45" y1="363.15" x2="54.03" y2="358.29" style="fill:none;stroke:#263238;stroke-miterlimit:10"></line><path d="M52.64,359.75a5.22,5.22,0,0,1,1.82-3.9c1.18-1.05,7.38-3.66,8-1.48C63.07,356.75,56.73,361.42,52.64,359.75Z" style="fill:#92E3A9;stroke:#263238;stroke-miterlimit:10"></path><line x1="52.64" y1="359.75" x2="58.89" y2="355.87" style="fill:none;stroke:#263238;stroke-miterlimit:10;stroke-width:0.5px"></line><path d="M50.45,351.13a5.21,5.21,0,0,1,1.82-3.89c1.18-1.05,7.38-3.67,8-1.48C60.88,348.13,54.54,352.8,50.45,351.13Z" style="fill:#92E3A9;stroke:#263238;stroke-miterlimit:10"></path><line x1="50.45" y1="351.13" x2="56.7" y2="347.26" style="fill:none;stroke:#263238;stroke-miterlimit:10;stroke-width:0.5px"></line><path d="M50.7,351.41A5.19,5.19,0,0,1,47,349.19c-.92-1.28-2.87-7.72-.64-8.08C48.81,340.72,52.79,347.52,50.7,351.41Z" style="fill:#92E3A9;stroke:#263238;stroke-miterlimit:10"></path><line x1="50.7" y1="351.41" x2="47.5" y2="344.79" style="fill:none;stroke:#263238;stroke-miterlimit:10;stroke-width:0.5px"></line><line x1="38.88" y1="312.17" x2="38.88" y2="434.87" style="fill:none;stroke:#263238;stroke-miterlimit:10"></line><line x1="38.98" y1="416.42" x2="34.92" y2="411.12" style="fill:none;stroke:#263238;stroke-miterlimit:10"></line><path d="M36.15,412.71a5.17,5.17,0,0,0-1.41-4.06c-1.06-1.17-7-4.41-7.77-2.3C26.09,408.65,31.92,413.94,36.15,412.71Z" style="fill:#92E3A9;stroke:#263238;stroke-miterlimit:10"></path><line x1="36.15" y1="412.71" x2="30.67" y2="408.44" style="fill:none;stroke:#263238;stroke-miterlimit:10;stroke-width:0.5px"></line><line x1="38.98" y1="393.36" x2="34.92" y2="388.06" style="fill:none;stroke:#263238;stroke-miterlimit:10"></line><path d="M36.15,389.65a5.17,5.17,0,0,0-1.41-4.06c-1.06-1.17-7-4.41-7.77-2.3C26.09,385.59,31.92,390.89,36.15,389.65Z" style="fill:#92E3A9;stroke:#263238;stroke-miterlimit:10"></path><line x1="36.15" y1="389.65" x2="30.67" y2="385.38" style="fill:none;stroke:#263238;stroke-miterlimit:10;stroke-width:0.5px"></line><line x1="38.98" y1="366.29" x2="34.92" y2="360.99" style="fill:none;stroke:#263238;stroke-miterlimit:10"></line><path d="M36.15,362.58a5.17,5.17,0,0,0-1.41-4.06c-1.06-1.17-7-4.41-7.77-2.3C26.09,358.52,31.92,363.82,36.15,362.58Z" style="fill:#92E3A9;stroke:#263238;stroke-miterlimit:10"></path><line x1="36.15" y1="362.58" x2="30.67" y2="358.31" style="fill:none;stroke:#263238;stroke-miterlimit:10;stroke-width:0.5px"></line><line x1="38.98" y1="348.27" x2="34.92" y2="342.97" style="fill:none;stroke:#263238;stroke-miterlimit:10"></line><path d="M36.15,344.56a5.17,5.17,0,0,0-1.41-4.06c-1.06-1.17-7-4.41-7.77-2.3C26.09,340.5,31.92,345.79,36.15,344.56Z" style="fill:#92E3A9;stroke:#263238;stroke-miterlimit:10"></path><line x1="36.15" y1="344.56" x2="30.67" y2="340.29" style="fill:none;stroke:#263238;stroke-miterlimit:10;stroke-width:0.5px"></line><line x1="38.98" y1="330.17" x2="34.92" y2="324.87" style="fill:none;stroke:#263238;stroke-miterlimit:10"></line><path d="M36.15,326.46a5.17,5.17,0,0,0-1.41-4.06c-1.06-1.17-7-4.41-7.77-2.3C26.09,322.4,31.92,327.69,36.15,326.46Z" style="fill:#92E3A9;stroke:#263238;stroke-miterlimit:10"></path><line x1="36.15" y1="326.46" x2="30.67" y2="322.19" style="fill:none;stroke:#263238;stroke-miterlimit:10;stroke-width:0.5px"></line><line x1="38.89" y1="423.46" x2="42.95" y2="418.16" style="fill:none;stroke:#263238;stroke-miterlimit:10"></line><path d="M41.72,419.75a5.17,5.17,0,0,1,1.41-4.06c1.06-1.17,7-4.41,7.77-2.3C51.78,415.69,46,421,41.72,419.75Z" style="fill:#92E3A9;stroke:#263238;stroke-miterlimit:10"></path><line x1="41.72" y1="419.75" x2="47.53" y2="415.25" style="fill:none;stroke:#263238;stroke-miterlimit:10;stroke-width:0.5px"></line><line x1="38.89" y1="386.79" x2="42.95" y2="381.49" style="fill:none;stroke:#263238;stroke-miterlimit:10"></line><path d="M41.72,383.08A5.17,5.17,0,0,1,43.13,379c1.06-1.17,7-4.41,7.77-2.3C51.78,379,46,384.31,41.72,383.08Z" style="fill:#92E3A9;stroke:#263238;stroke-miterlimit:10"></path><line x1="41.72" y1="383.08" x2="47.53" y2="378.58" style="fill:none;stroke:#263238;stroke-miterlimit:10;stroke-width:0.5px"></line><line x1="38.89" y1="368.69" x2="42.95" y2="363.39" style="fill:none;stroke:#263238;stroke-miterlimit:10"></line><path d="M41.72,365a5.17,5.17,0,0,1,1.41-4.06c1.06-1.17,7-4.41,7.77-2.3C51.78,360.92,46,366.21,41.72,365Z" style="fill:#92E3A9;stroke:#263238;stroke-miterlimit:10"></path><line x1="41.72" y1="364.98" x2="47.53" y2="360.48" style="fill:none;stroke:#263238;stroke-miterlimit:10;stroke-width:0.5px"></line><line x1="38.89" y1="344.76" x2="42.95" y2="339.46" style="fill:none;stroke:#263238;stroke-miterlimit:10"></line><path d="M41.72,341.05A5.17,5.17,0,0,1,43.13,337c1.06-1.17,7-4.41,7.77-2.29C51.78,337,46,342.29,41.72,341.05Z" style="fill:#92E3A9;stroke:#263238;stroke-miterlimit:10"></path><line x1="41.72" y1="341.05" x2="47.53" y2="336.55" style="fill:none;stroke:#263238;stroke-miterlimit:10;stroke-width:0.5px"></line><line x1="38.89" y1="325.95" x2="42.95" y2="320.66" style="fill:none;stroke:#263238;stroke-miterlimit:10"></line><path d="M41.72,322.25a5.19,5.19,0,0,1,1.41-4.07c1.06-1.17,7-4.4,7.77-2.29C51.78,318.18,46,323.48,41.72,322.25Z" style="fill:#92E3A9;stroke:#263238;stroke-miterlimit:10"></path><line x1="41.72" y1="322.25" x2="47.53" y2="317.74" style="fill:none;stroke:#263238;stroke-miterlimit:10;stroke-width:0.5px"></line><path d="M38.65,313.9a5.17,5.17,0,0,1,1.41-4.06c1.06-1.17,7-4.41,7.77-2.29C48.71,309.84,42.89,315.14,38.65,313.9Z" style="fill:#92E3A9;stroke:#263238;stroke-miterlimit:10"></path><line x1="38.65" y1="313.9" x2="44.46" y2="309.4" style="fill:none;stroke:#263238;stroke-miterlimit:10;stroke-width:0.5px"></line><path d="M38.93,314.15A5.2,5.2,0,0,1,35,312.32c-1-1.18-3.65-7.38-1.47-8C36,303.72,40.61,310.07,38.93,314.15Z" style="fill:#92E3A9;stroke:#263238;stroke-miterlimit:10"></path><line x1="38.93" y1="314.15" x2="35.06" y2="307.9" style="fill:none;stroke:#263238;stroke-miterlimit:10;stroke-width:0.5px"></line><polygon points="43.93 466.69 30.94 466.69 29.31 433.87 45.55 433.87 43.93 466.69" style="fill:#263238;stroke:#263238;stroke-miterlimit:10"></polygon></g><g id="freepik--Bricks--inject-2"><g style="opacity:0.30000000000000004"><rect x="273.5" y="41.47" width="31.87" height="12.95" style="fill:none;stroke:#000;stroke-linejoin:round"></rect><rect x="315.32" y="41.47" width="31.87" height="12.95" style="fill:none;stroke:#000;stroke-linejoin:round"></rect><rect x="293.42" y="63.38" width="31.87" height="12.95" style="fill:none;stroke:#000;stroke-linejoin:round"></rect><rect x="273.5" y="220.19" width="31.87" height="12.95" style="fill:none;stroke:#000;stroke-linejoin:round"></rect><rect x="315.32" y="220.19" width="31.87" height="12.95" style="fill:none;stroke:#000;stroke-linejoin:round"></rect><rect x="293.42" y="242.09" width="31.87" height="12.95" style="fill:none;stroke:#000;stroke-linejoin:round"></rect><rect x="370.09" y="64.38" width="31.87" height="12.95" style="fill:none;stroke:#000;stroke-linejoin:round"></rect><rect x="411.92" y="64.38" width="31.87" height="12.95" style="fill:none;stroke:#000;stroke-linejoin:round"></rect><rect x="390.01" y="86.29" width="31.87" height="12.95" style="fill:none;stroke:#000;stroke-linejoin:round"></rect><rect x="370.09" y="183.88" width="31.87" height="12.95" style="fill:none;stroke:#000;stroke-linejoin:round"></rect><rect x="411.92" y="183.88" width="31.87" height="12.95" style="fill:none;stroke:#000;stroke-linejoin:round"></rect><rect x="390.01" y="205.78" width="31.87" height="12.95" style="fill:none;stroke:#000;stroke-linejoin:round"></rect><rect x="87.28" y="110.19" width="31.87" height="12.95" style="fill:none;stroke:#000;stroke-linejoin:round"></rect><rect x="129.11" y="110.19" width="31.87" height="12.95" style="fill:none;stroke:#000;stroke-linejoin:round"></rect><rect x="107.2" y="132.09" width="31.87" height="12.95" style="fill:none;stroke:#000;stroke-linejoin:round"></rect><rect x="162.96" y="47.45" width="31.87" height="12.95" style="fill:none;stroke:#000;stroke-linejoin:round"></rect><rect x="141.06" y="69.36" width="31.87" height="12.95" style="fill:none;stroke:#000;stroke-linejoin:round"></rect><rect x="372.08" y="363.12" width="31.87" height="12.95" style="fill:none;stroke:#000;stroke-linejoin:round"></rect><rect x="350.18" y="385.03" width="31.87" height="12.95" style="fill:none;stroke:#000;stroke-linejoin:round"></rect><rect x="298.39" y="126.12" width="31.87" height="12.95" style="fill:none;stroke:#000;stroke-linejoin:round"></rect><rect x="26.54" y="155" width="31.87" height="12.95" style="fill:none;stroke:#000;stroke-linejoin:round"></rect><rect x="159.98" y="363.12" width="31.87" height="12.95" style="fill:none;stroke:#000;stroke-linejoin:round"></rect><rect x="138.07" y="385.03" width="31.87" height="12.95" style="fill:none;stroke:#000;stroke-linejoin:round"></rect><rect x="186.86" y="110.19" width="31.87" height="12.95" style="fill:none;stroke:#000;stroke-linejoin:round"></rect><rect x="228.69" y="110.19" width="31.87" height="12.95" style="fill:none;stroke:#000;stroke-linejoin:round"></rect><rect x="206.78" y="132.09" width="31.87" height="12.95" style="fill:none;stroke:#000;stroke-linejoin:round"></rect><rect x="411.92" y="233.67" width="31.87" height="12.95" style="fill:none;stroke:#000;stroke-linejoin:round"></rect><rect x="453.74" y="233.67" width="31.87" height="12.95" style="fill:none;stroke:#000;stroke-linejoin:round"></rect><rect x="431.83" y="255.57" width="31.87" height="12.95" style="fill:none;stroke:#000;stroke-linejoin:round"></rect><rect x="31.52" y="312.34" width="31.87" height="12.95" style="fill:none;stroke:#000;stroke-linejoin:round"></rect><rect x="73.34" y="312.34" width="31.87" height="12.95" style="fill:none;stroke:#000;stroke-linejoin:round"></rect><rect x="51.43" y="334.24" width="31.87" height="12.95" style="fill:none;stroke:#000;stroke-linejoin:round"></rect></g></g><g id="freepik--character-2--inject-2"><path d="M396.21,352.62s5.33,15.66,6,28.66,4.67,58.34,4.67,58.34-8.67,14-13.34,16.66-13.9,5.44-10,9.34c2,2,29.57.64,37.38.13a2.13,2.13,0,0,0,2-2.16c0-1.48,0-3.49,0-5,0-2.67.33-10.67.33-11.67s-4.33-8.33-4.33-8.33,10-38.34,10.66-51.34-3.33-19-3.33-21-.33-15.33-.33-15.33Z" style="fill:#fff;stroke:#263238;stroke-linejoin:round"></path><path d="M422.92,463.59c0-1.48,0-3.49,0-5,0-1.75.14-5.77.24-8.62-.57.07-1.19.16-1.84.26-3.94.59-15.38,7-22.78,11-5.36,2.85-12.41,2.63-15.88,2.29a2.55,2.55,0,0,0,.92,2.1c2,2,29.57.64,37.38.13A2.13,2.13,0,0,0,422.92,463.59Z" style="fill:#fff;stroke:#263238;stroke-linejoin:round"></path><path d="M420.74,441.87c-6.23,4.64-18.42,13.48-22.36,14.71a9.45,9.45,0,0,1-5.88.26c-4.49,2.32-11.45,4.76-9.58,8,4.14.12,12,0,17.49-2.17,7.75-3.1,12.52-6.44,18-8.71A33,33,0,0,1,423,452.4c.09-2.55.18-4.93.18-5.45S421.92,444,420.74,441.87Z" style="fill:#263238;stroke:#263238;stroke-linejoin:round"></path><path d="M414.88,352.62s5.33,15.66,6,28.66,4.66,58.34,4.66,58.34-8.66,14-13.33,16.66-13.9,5.44-10,9.34c2,2,29.56.64,37.38.13a2.12,2.12,0,0,0,2-2.16c0-1.48,0-3.49,0-5,0-2.67.34-10.67.34-11.67s-4.34-8.33-4.34-8.33,10-38.34,10.67-51.34-3.33-19-3.33-21-.34-15.33-.34-15.33Z" style="fill:#fff;stroke:#263238;stroke-linejoin:round"></path><path d="M441.58,463.59c0-1.48,0-3.49,0-5,0-1.75.14-5.77.24-8.62-.57.07-1.18.16-1.83.26-3.94.59-15.39,7-22.78,11-5.36,2.85-12.41,2.63-15.88,2.29a2.52,2.52,0,0,0,.92,2.1c2,2,29.56.64,37.38.13A2.12,2.12,0,0,0,441.58,463.59Z" style="fill:#fff;stroke:#263238;stroke-linejoin:round"></path><path d="M439.41,441.87c-6.23,4.64-18.43,13.48-22.36,14.71a9.45,9.45,0,0,1-5.88.26c-4.49,2.32-11.45,4.76-9.58,8,4.13.12,12,0,17.49-2.17,7.75-3.1,12.52-6.44,18-8.71a33.09,33.09,0,0,1,4.62-1.55c.09-2.55.18-4.93.18-5.45S440.58,444,439.41,441.87Z" style="fill:#263238;stroke:#263238;stroke-linejoin:round"></path><path d="M426,111.25s7.38,11.7,12.72,13.55,20.93,1.64,26.06,6.15,2.67,19.29-1,26.68,4.52,6.57,9.44,10.47,3.7,14-.82,18.87-15.39,8.62-15.39,8.62-2.05-9.85-8-13.54-16.42-8.21-18.06-16.21-8.41-22.78-8.41-22.78,8-3.08,7.59-11.9-7.59-16.83-8-18.68S423.28,109.81,426,111.25Z" style="fill:#263238;stroke:#263238;stroke-linejoin:round"></path><path d="M371.21,263.45s-15.25-1.25-16.5-1.25-7,6.75-7.5,8,.25,5.25.25,5.25l26.25-7.5Z" style="fill:#fff;stroke:#263238;stroke-linejoin:round"></path><path d="M358.14,255.39,357,272.45h1.5l1.43-16.93a.88.88,0,0,0-.75-.94h0A.88.88,0,0,0,358.14,255.39Z" style="fill:#263238;stroke:#263238;stroke-linejoin:round"></path><polygon points="393.96 244.7 371.21 263.45 373.71 267.95 391.96 260.45 393.96 244.7" style="fill:#92E3A9;stroke:#263238;stroke-linejoin:round"></polygon><path d="M384.42,278.56s-1.11,42.38-1.11,50.14S384.69,352,384.69,352s5.55,3.33,29.09,4.43,38.79-4.15,38.79-4.15,5.26-43.22,5.82-52.64.27-18.28.27-18.28Z" style="fill:#263238;stroke:#263238;stroke-linejoin:round"></path><path d="M416.71,171.2s-15,4.75-16.5,8.5-4.5,19.25-4.5,19.25-3.75,15.25-3.5,18,4.25,9.5,4.25,10.25-14.25,56.5-14.25,56.5,10,6,32.75,7,46.5-5.75,46.5-5.75-3.5-27.75-6-33.25-5-21.75-5-21.75,12.25-42.5,8.75-50-25-14.25-25-14.25Z" style="fill:#92E3A9;stroke:#263238;stroke-linejoin:round"></path><path d="M443.05,169c-4.84-2-8.84-3.29-8.84-3.29l-17.5,5.5s-4.27,1.35-8.49,3.19c-.66,3.5-2.41,14-.76,19.31,2,6.5,3.25,12.75,3.25,12.75s13-12.75,20.5-18.5C436.66,183.77,441.05,174.45,443.05,169Z" style="fill:#92E3A9;stroke:#263238;stroke-linejoin:round"></path><path d="M387.39,142s2.32,7.67,4.11,9.1,2.5,2,2.5,2-.54,10,1.42,10.71a4.45,4.45,0,0,0,3.75-.54s9.46,10.17,10.71,10.71,4.81-2.32,4.81-2.32-3.92,13.2-3.92,23.19-.54,12.67,1.07,9.64,18.73-27.3,21.23-31.94a49.59,49.59,0,0,0,3.21-6.78s-5.88-10.35-6.6-12.85S427.9,145,427.9,145s-.18,1.25-10.71-3.92a166.14,166.14,0,0,1-16.77-9.46C397.56,130,387.39,142,387.39,142Z" style="fill:#fff;stroke:#263238;stroke-linejoin:round"></path><path d="M396.13,147.76s.59-2.28,5.39-3" style="fill:none;stroke:#263238;stroke-linejoin:round"></path><path d="M399.53,150.74l1.07,2.68s2.67-.72,3.39-2.14" style="fill:none;stroke:#263238;stroke-linejoin:round"></path><path d="M402.92,164.3s4.1-1.25,4.1-4.64" style="fill:none;stroke:#263238;stroke-linejoin:round"></path><path d="M425.4,147.53s2.32,2.68,1.07,5a2.9,2.9,0,0,1-3.21,1.78,9.07,9.07,0,0,1,.36,6.07c-1.08,2.85-6.61,7.49-6.61,7.49" style="fill:none;stroke:#263238;stroke-linejoin:round"></path><path d="M395.07,151.28s2,4.64,3.57,4.82,7.31-3.4,8.2-5.18-2.14-5.35-3.74-5.35S396,150,396,150,394.71,150.21,395.07,151.28Z" style="fill:none;stroke:#263238;stroke-linejoin:round"></path><line x1="395.07" y1="151.28" x2="393.1" y2="152.17" style="fill:none;stroke:#263238;stroke-linejoin:round"></line><path d="M392,151.81s-3.74,1.25-3.39,2.86,5,4.1,5,4.1" style="fill:none;stroke:#263238;stroke-linejoin:round"></path><line x1="403.81" y1="145.39" x2="406.31" y2="143.96" style="fill:none;stroke:#263238;stroke-linejoin:round"></line><path d="M414.69,171.62s1.61,7.15.38,13.1" style="fill:none;stroke:#263238;stroke-linejoin:round"></path><path d="M433.21,200.7,426,242.45,378.21,263l3,11L444,258.7s3.75-1,4.75-6c.22-1.09,12.25-60.25,12.75-64a11,11,0,0,0-8.25-11.5" style="fill:#92E3A9;stroke:#263238;stroke-linejoin:round"></path><path d="M378.21,263l-14.5,5.5s-13.5,3.25-14.25,4-7.75,5-9,5.75-3.25,3,2,2.25a69.1,69.1,0,0,0,11-2.75s7.5.75,10,.5S371,274,371,274l9.75-3.25Z" style="fill:#fff;stroke:#263238;stroke-linejoin:round"></path><path d="M386.12,119S372.21,134.42,374,139.22s11.63,5.06,13.4,4.3,10.12-8.09,10.12-8.09,3.79,6.58,10.12,9.36a31.93,31.93,0,0,0,11.63,2.78l7.34-.25s11.88-2.79,10.11-13.66-7.58-22.26-15.68-26.3S396.24,106.85,386.12,119Z" style="fill:#263238;stroke:#263238;stroke-linejoin:round"></path><path d="M388.58,140s-1.59-5.56,1.19-6.75,6,.39,6,.39" style="fill:none;stroke:#707070;stroke-linejoin:round"></path><path d="M463.23,170.17c4.37.39,7.15,5.56,6,8.34" style="fill:none;stroke:#707070;stroke-linejoin:round"></path><path d="M459.75,150.37c-2.05,3.56-4.86,7-4.86,9.47a11.59,11.59,0,0,0,4.18,8.49" style="fill:none;stroke:#707070;stroke-linejoin:round"></path><path d="M412.08,140.52a23.5,23.5,0,0,0,9.85.66c11.52-1.59,33.36-6,38.52-.4,1.93,2.08,1.64,4.61.52,7.2" style="fill:none;stroke:#707070;stroke-linejoin:round"></path><path d="M404.06,136a17.58,17.58,0,0,0,4.89,3.31" style="fill:none;stroke:#707070;stroke-linejoin:round"></path><path d="M460.72,133.64a8.54,8.54,0,0,1,3.7,6.35" style="fill:none;stroke:#707070;stroke-linejoin:round"></path><path d="M396.92,124.9s3.57-2,10.32,3.17,21.84,8.34,35.34,4.77c6.33-1.68,11.35-1.78,15-.68" style="fill:none;stroke:#707070;stroke-linejoin:round"></path><path d="M432.66,147.93s15.48-.79,15.09,8.74,2,11.11,4.76,11.91" style="fill:none;stroke:#707070;stroke-linejoin:round"></path></g><g id="freepik--character-1--inject-2"><polygon points="194.38 263.93 174.77 275.7 156.06 281.43 155.16 284.45 184.13 284.45 196.5 277.81 194.38 263.93" style="fill:#263238;stroke:#263238;stroke-linejoin:round"></polygon><path d="M195.89,291.08s0,32.59,1.51,49.49a150.14,150.14,0,0,0,6.94,32.28s9.35,40.13,11.47,48.58,2.84,22.14,2.84,22.14-1.11,6.82-3.52,8.63-13.5,9.36-12.9,10.87,27.46,0,27.46,0,6.33.6,5.12-7.55-3.92-29-3.92-43.44S223.05,368,223.05,368s8.14-25,12.37-41.94,3.32-25,3.32-25l-.3-4.83Z" style="fill:#fff;stroke:#263238;stroke-linejoin:round"></path><path d="M234.81,455.52c-.75-5.06-2.08-15-3-25.31-7.72,4-12,2.82-14.33.89.83,6.49,1.15,12.47,1.15,12.47s-1.11,6.82-3.52,8.63-13.5,9.36-12.9,10.87,27.46,0,27.46,0S236,463.67,234.81,455.52Z" style="fill:#b0b0b0;stroke:#263238;stroke-linejoin:round"></path><path d="M232.75,457.59c-.27-1.79-.61-4.21-1-7-3.63-.05-6.48-.16-6.48-.16s-1.12-4.1-5.22-4.47-4.47,4.47-4.47,4.47h-.25a8.61,8.61,0,0,1-2.29,3.87c-2.42,1.81-13.5,9.36-12.9,10.87s27.46,0,27.46,0S234,465.74,232.75,457.59Z" style="fill:#fff;stroke:#263238;stroke-linejoin:round"></path><path d="M210.31,339.75s-5.4-39.1-.41-40.77,12.89-1.66,12.06,10S210.31,339.75,210.31,339.75Z" style="fill:#92E3A9;stroke:#263238;stroke-linejoin:round"></path><path d="M219.73,301.34s-11.17,33.49-14.48,54.31,15.2,64.9,17.19,70.31c4.23,11.46,6.94,21.72,6.94,21.72s-4.52,6-8.75,9.35-11.16,5.74-10.56,8.45,27.46,0,27.46,0,8.75-4.22,11.77-6.34-3-12.67-3.62-14.18-2.12-4.82-2.12-4.82.31-42.55-2.11-51.6-6.64-22-6.64-22,30.18-25.95,37.12-47.37,4.52-26.86,4.52-26.86l-57.32,6.64Z" style="fill:#fff;stroke:#263238;stroke-linejoin:round"></path><path d="M219.73,301.34s-11.17,33.49-14.48,54.31c0,.22-.06.45-.09.67,7.47-10,25.48-35.35,25.48-46.45a17.48,17.48,0,0,0-4.85-11.71l-6.66.77Z" style="fill:#92E3A9;stroke:#263238;stroke-linejoin:round"></path><path d="M241.45,388.54c-.33-1.26-.71-2.6-1.1-4C233.58,392.1,214.69,405,224,407.2c6.64,1.56,14.42,3.35,19.33,5.37C243,402.4,242.48,392.41,241.45,388.54Z" style="fill:#92E3A9;stroke:#263238;stroke-linejoin:round"></path><path d="M243.46,420.56c-3.93,2.17-8.59,5.15-6.82,14,.59,3,3.2,4.15,6.93,4.19C243.58,435.79,243.59,428.64,243.46,420.56Z" style="fill:#92E3A9;stroke:#263238;stroke-linejoin:round"></path><path d="M223.05,368c-.76,5.08,9,6.57,15,8.89-1.74-5.71-3.27-10.39-3.27-10.39s2-1.76,5.17-4.72C231.29,362.94,223.55,364.65,223.05,368Z" style="fill:#92E3A9;stroke:#263238;stroke-linejoin:round"></path><path d="M242.64,333.87c.87,4.37,6.2,9.12,11.42,13.31a126.53,126.53,0,0,0,12.09-16.08C255.26,329.92,241.4,327.67,242.64,333.87Z" style="fill:#92E3A9;stroke:#263238;stroke-linejoin:round"></path><path d="M250.64,312.53c4.91,4.54,13.46,7.57,19.82,10.44.56-1.28,1.06-2.56,1.47-3.82a125,125,0,0,0,4-15C264.76,304.72,244.23,306.62,250.64,312.53Z" style="fill:#92E3A9;stroke:#263238;stroke-linejoin:round"></path><path d="M249.3,459.14c3-2.11-3-12.67-3.62-14.18s-2.12-4.82-2.12-4.82,0-4.68,0-11.26c-8.46,5.2-15.55,3.65-19.34,2,3.2,9.31,5.17,16.77,5.17,16.77s-4.52,6-8.75,9.35-11.16,5.74-10.56,8.45,27.46,0,27.46,0S246.28,461.26,249.3,459.14Z" style="fill:#b0b0b0;stroke:#263238;stroke-linejoin:round"></path><path d="M249.3,459.14c2.77-1.94-2.1-11-3.37-13.63-3.68,6.38-9.61,5.49-9.61,5.49a12.33,12.33,0,0,0-2.71-3.62c-2.11-2.11-4.23.3-4.23.3s-4.52,6-8.75,9.35-11.16,5.74-10.56,8.45,27.46,0,27.46,0S246.28,461.26,249.3,459.14Z" style="fill:#fff;stroke:#263238;stroke-linejoin:round"></path><path d="M194.69,287.16l.9,9A40.61,40.61,0,0,0,217,303.76c12.68.6,28.67-.61,39.23-3s21.72-3.92,22-6.64.3-10.56.3-10.56-14.18,4.83-37.11,6.34-32,1.2-36.81-.61A38.71,38.71,0,0,0,194.69,287.16Z" style="fill:#787878;stroke:#263238;stroke-miterlimit:10"></path><path d="M224,175.82s-16.36,11.38-21.36,22.71-12.34,23-12,33.67a91.47,91.47,0,0,0,3.33,21c.67,3-6.33,28.67-1,35.33s25,10.34,42.67,8,37-4.33,41.66-8.66,6.81-15.21,4.41-18.61-5.41-36.73-5.41-43.73,5-27.33,5-27.33,7-12.67,5.34-17.33S273.3,170.2,266,169.53s-10-1.66-18.33-1.33S227.69,172.1,224,175.82Z" style="fill:#787878;stroke:#263238;stroke-miterlimit:10"></path><path d="M286.64,180.87C285,176.2,273.3,170.2,266,169.53s-10-1.66-18.33-1.33-19.95,3.9-23.64,7.62c0,0-16.36,11.38-21.36,22.71-1.4,3.17-3,6.35-4.51,9.54a62.19,62.19,0,0,0-1,7.61c-.22,5.6-.22,13.8-.22,13.8s2.37,2.81,2.59-1.08c0,0,9.92-13.59,14.67-19.41s23.09-25.68,38-28.91,22,.64,25,4.31,4.11,13.81,4.11,13.81S288.3,185.53,286.64,180.87Z" style="fill:#787878;stroke:#263238;stroke-miterlimit:10"></path><path d="M227.75,110.33s0-5.75-5.25-12.75-19.75-6.75-26.75,3,1.75,16.25.25,18.5-13,5.5-9.5,10.5,8,6.74,7.5,7.49-7.25,4.5-.75,7.5,7.75,3.25,7.75,3.25-4,2.25-2.25,4.25,5.25-.25,5.25-.25-1.25-3,.25-4,4-3.75,3-5.75-2.5-3.5-.5-5,4-4.75,5-6,9.75-15.74,11.5-15.74A5.13,5.13,0,0,0,227.75,110.33Z" style="fill:#263238;stroke:#263238;stroke-linejoin:round"></path><path d="M222.3,180.53S207.64,193.2,202,206.2s-5.67,25.67-4,24.33,8.33-20.33,15.67-29.66a101.16,101.16,0,0,1,17.11-16.55L244.3,172.2Z" style="fill:#92E3A9;stroke:#263238;stroke-linejoin:round"></path><path d="M224,110.08s-13,6-15,14,.75,21.74.75,21.74-3,7.25-.5,12.75,6.25,12.25,9.5,14.5a18.34,18.34,0,0,0,5.25,2.75s-3.75,6-3.5,10.25,4.5,3,10.25-1.75,12.49-11.5,16.49-13.25,5.5-2.5,5.5-2.5-.75-13.25-.75-17.25,8-15.5,3.75-26.24S237,104.58,224,110.08Z" style="fill:#b0b0b0;stroke:#263238;stroke-miterlimit:10"></path><path d="M213.5,145.57l-1,3.5s1.25,1.25,5.5.25" style="fill:none;stroke:#263238;stroke-miterlimit:10"></path><path d="M219.25,147.07s-3.75,8-2,8.75,7-.5,7-.5" style="fill:none;stroke:#263238;stroke-miterlimit:10"></path><path d="M225.75,144.57l-1,4.25a7.71,7.71,0,0,0,7.25-1.25" style="fill:none;stroke:#263238;stroke-miterlimit:10"></path><path d="M212,141.07s3.25-3.25,6.5,0" style="fill:none;stroke:#263238;stroke-miterlimit:10"></path><path d="M223.5,138.82a7.72,7.72,0,0,1,9.5,1.75" style="fill:none;stroke:#263238;stroke-miterlimit:10"></path><path d="M216,162.32s2,3.75,5.5,3.75,6.75-4,6.75-4S218.5,162.57,216,162.32Z" style="fill:#92E3A9;stroke:#263238;stroke-linejoin:round"></path><path d="M216,162.32a23.07,23.07,0,0,0,14-1s-4.25.75-5.75.5S216.5,161.07,216,162.32Z" style="fill:#92E3A9;stroke:#263238;stroke-linejoin:round"></path><path d="M252,151.32c0-4,8-15.5,3.75-26.24s-18.74-20.5-31.74-15c0,0-11.59,5.35-14.57,12.68.1-.14.2-.29.32-.43a32.91,32.91,0,0,1,5.5-5s-1,4-.25,4.25,4.75-2.25,4.75-2.25-3,4.5,0,4.75,11.75-4.5,11.75-4.5-1.75,4.25.25,4.5,5.74.5,5.74.5-1.49,3.75,0,5.24a5,5,0,0,0,3.75,1.25s-2.5,3.5-1.5,4.75a30.26,30.26,0,0,1,2.5,4.75s2.5-7,5.75-.25a11.1,11.1,0,0,1-1,11.75s1.11,3.11,5,1.64C252,152.75,252,151.93,252,151.32Z" style="fill:#263238;stroke:#263238;stroke-linejoin:round"></path><path d="M209,127.58a5.2,5.2,0,0,1-.37-1.62c0,.32-.09.65-.13,1Z" style="fill:#fff;stroke:#263238;stroke-linejoin:round"></path><path d="M241.24,143.57s.75-9,6-5.5,2.25,11.25,1.25,13.75-6.5,2.25-6.5.75" style="fill:#b0b0b0;stroke:#263238;stroke-linejoin:round"></path><path d="M224,175.82a30.36,30.36,0,0,0-2.86,6.19,41.78,41.78,0,0,0,7.61-5.19,54.07,54.07,0,0,0,10.74-12.75s-7.49,7.25-10,9.25A13.38,13.38,0,0,1,224,175.82Z" style="fill:#263238;stroke:#263238;stroke-linejoin:round"></path><path d="M247.79,193s-7.24,5.43-10.86,16.59-8.45,42.54-8.45,42.54a61.47,61.47,0,0,0-12.67,5.43c-5.43,3.32-31.68,19.92-31.68,19.92L181.41,279l3.62,8.75a216,216,0,0,0,34.4-6c18.4-4.83,34.39-9.35,37.11-12.67s15.69-47.07,17.8-55.22,3.32-13.27-2.41-19.31" style="fill:#787878;stroke:#263238;stroke-miterlimit:10"></path><path d="M250.24,241.35a33.72,33.72,0,0,0,3.28-2.46" style="fill:none;stroke:#263238;stroke-linejoin:round"></path><path d="M230,251.56a150.48,150.48,0,0,0,17.28-8.35" style="fill:none;stroke:#263238;stroke-linejoin:round"></path><path d="M248.28,232.3c-5,4.35-11.65,10.2-15.58,14.13" style="fill:none;stroke:#263238;stroke-linejoin:round"></path><path d="M255,226.52s-1.45,1.22-3.66,3.11" style="fill:none;stroke:#263238;stroke-linejoin:round"></path><path d="M230.59,253.07s7.54,1.2,10,.6" style="fill:none;stroke:#263238;stroke-linejoin:round"></path><path d="M181.41,279s-12.67.9-14.18.9a111.43,111.43,0,0,0-11.16,1.51c-.91.3-6.64,7.24-6.64,7.24s-1.21,1.51.3,1.21,6.34-1.81,6.34-1.81,7.24,1.51,9.65,1.51,10.86-1.21,10.86-1.21l8.45-.6Z" style="fill:#b0b0b0;stroke:#263238;stroke-linejoin:round"></path><line x1="185.33" y1="277.51" x2="189.25" y2="287.77" style="fill:none;stroke:#263238;stroke-linejoin:round"></line></g><g id="freepik--table-2--inject-2"><path d="M265.72,466.69a3.5,3.5,0,0,1-3-5.36l98-165a3.5,3.5,0,1,1,5.93,3.72l-98,165A3.51,3.51,0,0,1,265.72,466.69Z" style="fill:#787878;stroke:#263238;stroke-miterlimit:10"></path><path d="M363.73,466.69a3.49,3.49,0,0,1-3-1.64l-98-165a3.5,3.5,0,1,1,5.93-3.72l98,165a3.51,3.51,0,0,1-3,5.36Z" style="fill:#787878;stroke:#263238;stroke-miterlimit:10"></path><path d="M285.72,466.69a3.5,3.5,0,0,1-3-5.36l98-165a3.5,3.5,0,1,1,5.93,3.72l-98,165A3.51,3.51,0,0,1,285.72,466.69Z" style="fill:#fff;stroke:#263238;stroke-linejoin:round"></path><path d="M383.73,466.69a3.49,3.49,0,0,1-3-1.64l-98-165a3.5,3.5,0,1,1,5.93-3.72l98,165a3.51,3.51,0,0,1-3,5.36Z" style="fill:#fff;stroke:#263238;stroke-linejoin:round"></path><path d="M257,166.75h94.25a14.84,14.84,0,0,1,14.84,14.84V290.68a0,0,0,0,1,0,0H257a0,0,0,0,1,0,0V166.75A0,0,0,0,1,257,166.75Z" style="fill:#fff;stroke:#263238;stroke-linejoin:round"></path><path d="M286,166.75h94.25a14.84,14.84,0,0,1,14.84,14.84V290.68a0,0,0,0,1,0,0H286a0,0,0,0,1,0,0V166.75A0,0,0,0,1,286,166.75Z" style="fill:#fff;stroke:#263238;stroke-linejoin:round"></path><polygon points="285.97 202.59 366.74 166.75 285.97 166.75 285.97 202.59" style="fill:#92E3A9;stroke:#263238;stroke-linejoin:round"></polygon><polygon points="293.06 290.68 395.06 290.68 395.06 245.77 293.06 290.68" style="fill:#92E3A9;stroke:#263238;stroke-linejoin:round"></polygon><path d="M339,188.34V214.4h-2.9V188.34Z" style="fill:#263238"></path><path d="M305.41,224l4.24,22.68L313.86,224h2.68L311.66,250h-4.28L302.46,224Z" style="fill:#263238"></path><path d="M318.51,230.25c0-4,2-6.55,6-6.55s6,2.57,6,6.55v13.48c0,4-2,6.56-6,6.56s-6-2.61-6-6.56Zm2.87,13.63c0,2.38,1,3.76,3.09,3.76s3.09-1.38,3.09-3.76V230.11c0-2.35-1-3.76-3.09-3.76s-3.09,1.41-3.09,3.76Z" style="fill:#263238"></path><path d="M337,250V226.61h-4.8V224h12.47v2.65h-4.8V250Z" style="fill:#263238"></path><path d="M355.89,235.5v2.61h-6.37v9.27h7.82V250H346.62V224h10.72v2.65h-7.82v8.89Z" style="fill:#263238"></path><path d="M366.13,224c4.06,0,5.92,2.46,5.92,6.48v13.14c0,4-1.86,6.44-5.92,6.44H360V224Zm0,23.42c2.09,0,3.09-1.3,3.09-3.68V230.29c0-2.38-1-3.68-3.12-3.68h-3.13v20.77Z" style="fill:#263238"></path><rect x="257.03" y="290.68" width="137.61" height="11.49" style="fill:#303030;stroke:#263238;stroke-miterlimit:10"></rect><rect x="285.88" y="290.68" width="108.75" height="11.49" style="fill:#787878;stroke:#263238;stroke-miterlimit:10"></rect></g><g id="freepik--table-1--inject-2"><path d="M61.3,466.69a3.5,3.5,0,0,1-3-5.36l98-165a3.5,3.5,0,1,1,5.93,3.72l-98,165A3.51,3.51,0,0,1,61.3,466.69Z" style="fill:#787878;stroke:#263238;stroke-miterlimit:10"></path><path d="M159.31,466.69a3.5,3.5,0,0,1-3-1.64l-98-165a3.5,3.5,0,1,1,5.93-3.72l98,165a3.5,3.5,0,0,1-1.1,4.82A3.54,3.54,0,0,1,159.31,466.69Z" style="fill:#787878;stroke:#263238;stroke-miterlimit:10"></path><path d="M81.3,466.69a3.5,3.5,0,0,1-3-5.36l98-165a3.5,3.5,0,1,1,5.93,3.72l-98,165A3.51,3.51,0,0,1,81.3,466.69Z" style="fill:#fff;stroke:#263238;stroke-linejoin:round"></path><path d="M179.31,466.69a3.5,3.5,0,0,1-3-1.64l-98-165a3.5,3.5,0,1,1,5.93-3.72l98,165a3.5,3.5,0,0,1-1.1,4.82A3.54,3.54,0,0,1,179.31,466.69Z" style="fill:#fff;stroke:#263238;stroke-linejoin:round"></path><path d="M52.61,166.75h94.25a14.84,14.84,0,0,1,14.84,14.84V290.68a0,0,0,0,1,0,0H52.61a0,0,0,0,1,0,0V166.75A0,0,0,0,1,52.61,166.75Z" style="fill:#fff;stroke:#263238;stroke-linejoin:round"></path><path d="M81.56,166.75H175.8a14.84,14.84,0,0,1,14.84,14.84V290.68a0,0,0,0,1,0,0H81.56a0,0,0,0,1,0,0V166.75A0,0,0,0,1,81.56,166.75Z" style="fill:#fff;stroke:#263238;stroke-linejoin:round"></path><polygon points="81.56 202.59 162.32 166.75 81.56 166.75 81.56 202.59" style="fill:#92E3A9;stroke:#263238;stroke-linejoin:round"></polygon><polygon points="88.64 290.68 190.65 290.68 190.65 245.77 88.64 290.68" style="fill:#92E3A9;stroke:#263238;stroke-linejoin:round"></polygon><path d="M134.53,188.34V214.4h-2.9V188.34Z" style="fill:#263238"></path><path d="M101,224l4.24,22.68L109.44,224h2.68L107.24,250H103L98.05,224Z" style="fill:#263238"></path><path d="M114.09,230.25c0-4,2-6.55,6-6.55s6,2.57,6,6.55v13.48c0,4-2,6.56-6,6.56s-6-2.61-6-6.56ZM117,243.88c0,2.38,1,3.76,3.09,3.76s3.09-1.38,3.09-3.76V230.11c0-2.35-1-3.76-3.09-3.76s-3.09,1.41-3.09,3.76Z" style="fill:#263238"></path><path d="M132.56,250V226.61h-4.8V224h12.47v2.65h-4.8V250Z" style="fill:#263238"></path><path d="M151.47,235.5v2.61h-6.36v9.27h7.82V250H142.2V224h10.73v2.65h-7.82v8.89Z" style="fill:#263238"></path><path d="M161.71,224c4.06,0,5.92,2.46,5.92,6.48v13.14c0,4-1.86,6.44-5.92,6.44h-6.1V224Zm0,23.42c2.08,0,3.09-1.3,3.09-3.68V230.29c0-2.38-1-3.68-3.13-3.68h-3.13v20.77Z" style="fill:#263238"></path><rect x="52.61" y="290.68" width="137.61" height="11.49" style="fill:#303030;stroke:#263238;stroke-miterlimit:10"></rect><rect x="81.46" y="290.68" width="108.75" height="11.49" style="fill:#787878;stroke:#263238;stroke-miterlimit:10"></rect></g><g id="freepik--Floor--inject-2"><line x1="6.62" y1="466.69" x2="477.64" y2="466.69" style="fill:none;stroke:#263238;stroke-linejoin:round"></line></g></svg>